<svg xmlns="http://www.w3.org/2000/svg" xmlns:xlink="http://www.w3.org/1999/xlink" xmlns:inkscape="http://www.inkscape.org/namespaces/inkscape" version="1.1" width="841.89" height="595.276" viewBox="0 0 841.89 595.276">
<defs>
<clipPath id="clip_0">
<path transform="matrix(1,0,0,-1,0,595.276)" d="M0 595.276H841.89V0H0Z"/>
</clipPath>
</defs>
<g inkscape:groupmode="layer" inkscape:label="Layer 1">
<g clip-path="url(#clip_0)">
<path transform="matrix(1,0,0,-1,460.1558,138.69171)" d="M0 0C-1.303-1.056-3.546-1.123-4.235-2.815-5.29 1.697-2.06 1.644 0 0" fill="#231f20" fill-rule="evenodd"/>
<path transform="matrix(1,0,0,-1,468.2462,143.92691)" d="M0 0C7.078-.861 1.564-6.775 0 0" fill="#231f20" fill-rule="evenodd"/>
<path transform="matrix(1,0,0,-1,354.2729,154.79102)" d="M0 0C1.077 6.186 7.016 .54 0 0" fill="#231f20" fill-rule="evenodd"/>
<path transform="matrix(1,0,0,-1,314.6212,175.72022)" d="M0 0C-.234-2.843-2.2-3.873-4.623-4.427-4.639-1.337-1.704-1.303 0 0" fill="#231f20" fill-rule="evenodd"/>
<path transform="matrix(1,0,0,-1,317.3135,176.52231)" d="M0 0C.118-2.513-.105-5.612-1.922-6.043-2.253-6.124-4.911-4.954-5.005-4.433-5.255-3.071-1.271-.999 0 0" fill="#231f20" fill-rule="evenodd"/>
<path transform="matrix(1,0,0,-1,307.6886,190.2038)" d="M0 0C-3.215-1.382-.7 2.212-4.235 1.601-3.909 4.056-.326 4.686-2.313 7.228 2.827 8.345-1.604 2.727 0 0" fill="#231f20" fill-rule="evenodd"/>
<path transform="matrix(1,0,0,-1,505.9701,185.78491)" d="M0 0C2.759-1.151 3.131-4.554 3.85-6.842 1.386-5.66-2-3.493 0 0" fill="#231f20" fill-rule="evenodd"/>
<path transform="matrix(1,0,0,-1,497.5029,188.19712)" d="M0 0C1.99 .982 4.477-3.144 6.165-4.028 7.248-4.605 7.756-3.794 8.082-4.43 9.689-7.543 7.277-11.9 7.697-14.489 4.13-12.708 .964-7.363-1.543-5.235-1.976-4.869-5.982-2.899-4.62-.808-2.625 2.255-.261-4.399 0-4.43 1.155-4.568 .487-1.328 0 0" fill="#231f20" fill-rule="evenodd"/>
<path transform="matrix(1,0,0,-1,297.2912,191.4169)" d="M0 0C3.737 1.993 5.452-4.349 .778-2.823-.164-2.519-2.453-1.314 0 0" fill="#231f20" fill-rule="evenodd"/>
<path transform="matrix(1,0,0,-1,527.5296,193.8403)" d="M0 0C2.165 .259 3.831-1.714 3.083-3.22 1.263-2.969 .56-1.562 0 0" fill="#231f20" fill-rule="evenodd"/>
<path transform="matrix(1,0,0,-1,284.9741,202.28672)" d="M0 0C4.771 2.724 .04-5.435-1.158-2.015-1.553-.887-1.43-.811 0 0" fill="#231f20" fill-rule="evenodd"/>
<path transform="matrix(1,0,0,-1,473.2402,209.5315)" d="M0 0C7.514 .07 1.419-7.844 0 0" fill="#231f20" fill-rule="evenodd"/>
<path transform="matrix(1,0,0,-1,568.7238,228.4537)" d="M0 0C-2.407 .062-2.208 2.029-4.229 1.613-3.917 4.371 .773 3.099 0 0" fill="#231f20" fill-rule="evenodd"/>
<path transform="matrix(1,0,0,-1,260.7142,250.5874)" d="M0 0C.377 8.953 6.34 1.509 0 0" fill="#231f20" fill-rule="evenodd"/>
<path transform="matrix(1,0,0,-1,586.0566,265.0824)" d="M0 0C-1.109 .588-1.683 1.74-3.083 2.018-1.909 5.424 3.026 2.207 0 0" fill="#231f20" fill-rule="evenodd"/>
<path transform="matrix(1,0,0,-1,266.1095,355.2468)" d="M0 0H1.152C1.241-1.68 3.056-3.144 1.922-4.83 .153-4.399-.005-2.283 0 0" fill="#231f20" fill-rule="evenodd"/>
<path transform="matrix(1,0,0,-1,564.4943,374.9656)" d="M0 0C-1.171-2.24-1.359-3.918 0-6.04-3.438-7.163-4.06 .239 0 0" fill="#231f20" fill-rule="evenodd"/>
<path transform="matrix(1,0,0,-1,549.4849,390.661)" d="M0 0C1.591-.622 .964-3.549 3.08-3.625 2.011-7.782-1.858-3.459 0 0" fill="#231f20" fill-rule="evenodd"/>
<path transform="matrix(1,0,0,-1,528.3022,422.86799)" d="M0 0C-6.157 1.59 .469 8.55 0 0" fill="#231f20" fill-rule="evenodd"/>
<path transform="matrix(1,0,0,-1,524.8374,421.6549)" d="M0 0C-.574-2.226-1.777-3.794-4.617-3.622V-6.445C-5.646-6.44-6.822-6.597-7.315-6.043-7.054-4.444-6.34-3.307-6.55-1.213-5.094-.909-5.708-2.753-4.617-2.817-4.278 .197-2.555-.707 0 0" fill="#231f20" fill-rule="evenodd"/>
<path transform="matrix(1,0,0,-1,316.1586,423.6702)" d="M0 0C1.766-.172 3.007-.881 3.083-2.82 1.031-3.062-.985-1.638 0 0" fill="#231f20" fill-rule="evenodd"/>
<path transform="matrix(1,0,0,-1,511.3599,426.8901)" d="M0 0C.229-.369 2.959-5.868 1.928-6.851-1.236-9.837-1.257-2.471 0 0" fill="#231f20" fill-rule="evenodd"/>
<path transform="matrix(1,0,0,-1,322.7115,430.9177)" d="M0 0C1.712 1.343 3.661 .259 3.454 .405 5.584-1.103 .253-5.809-.778-2.412-1.01-1.644-.907-.704 0 0" fill="#231f20" fill-rule="evenodd"/>
<path transform="matrix(1,0,0,-1,493.6529,432.1223)" d="M0 0C2.175 1.731 2.418-3.727 1.152-4.427-.517-5.359-1.166-.932 0 0" fill="#231f20" fill-rule="evenodd"/>
<path transform="matrix(1,0,0,-1,503.2723,436.1499)" d="M0 0C.089 .259 3.931 4.056 4.243 4.028 5.729 3.918 7.073 1.019 6.548 0 6.305-.473 1.16-1.213 0 0" fill="#231f20" fill-rule="evenodd"/>
<path transform="matrix(1,0,0,-1,438.6313,437.7542)" d="M0 0C.818-2.302 5.71-.467 4.625 3.611 3.153 3.487-.205 .574 0 0M-12.32 3.611C-16.269-3.22-9.046-2.643-12.32 3.611M-76.998 4.83C-78.355 5.027-79.507 5.426-81.238 5.227-80.934 2.145-77.224 .746-76.998 4.83M-94.328 10.056C-92.363 9.845-91.576 8.556-92.4 6.434-87.648 7.822-92.174 15.908-94.328 10.056M-90.475 14.886C-88.798 12.288-83.702 18.948-88.168 18.511-90.311 18.306-91.73 16.825-90.475 14.886M-115.503 19.716C-115.677 22.753-118.294 23.24-120.895 23.744-119.904 21.745-117.702 19.119-115.503 19.716M-101.261 24.546C-101.917 23.58-100.725 20.073-98.566 20.524-97.303 23.299-100.302 25.959-101.261 24.546M-137.835 25.759C-138.349 28.033-139.38 29.772-142.07 29.781-141.841 27.203-140.721 25.559-137.835 25.759M-134.367 25.759C-134.249 28.706-135.651 32.193-137.835 31.391-135.859 30.116-138.077 26.507-134.367 25.759M-138.605 37.825C-140.955 37.391-141.79 38.534-143.23 39.038-143.803 34.715-138.664 34.104-138.605 37.825M-130.523 47.093C-129.198 45.919-129.252 43.319-126.673 43.468-126.565 45.948-128.608 48.005-130.523 47.093M-143.615 40.248C-145.058 41.872-143.585 43.271-143.615 44.27-143.693 47.155-148.151 46.558-149 48.697-148.738 44.276-145.957 42.477-143.615 40.248M80.087 45.078C85.097 48.196 77.922 51.869 80.087 45.078M-155.932 58.767C-155.329 56.194-152.874 54.336-152.467 52.722-151.993 50.859-152.987 49.502-150.537 49.511-149.126 51.149-151.129 51.841-151.695 53.133-153.329 56.844-154.761 61.908-157.084 64.399-156.673 61.885-156.473 61.049-155.932 58.767M-158.624 63.188C-157.375 66.453-157.222 70.743-160.937 71.64-160.566 67.942-160.743 65.476-158.624 63.188M125.128 87.745C122.113 79.254 130.241 83.177 125.128 87.745M-162.092 78.888C-164.413 83.135-162.289 87.191-165.939 89.763-167.353 84.888-163.6 82.034-162.092 78.888M133.601 94.59C132.604 97.174 133.129 101.345 131.291 103.04 130.039 99.344 132.287 96.831 133.601 94.59M132.831 142.486C133.967 139.052 138.177 145.458 133.986 145.309 130.577 145.179 132.478 143.547 132.831 142.486M132.063 172.672C131.328 173.679 130.453 176.131 128.596 174.69 129.495 171.191 132.408 172.925 134.371 171.87 135.256 174.501 134.163 178.301 131.684 178.712 132.79 177.392 133.374 174.363 132.063 172.672M-143.615 186.764C-142.982 187.977-145.338 188.763-145.15 188.777-149.236 188.532-145.16 183.775-143.615 186.764M-140.915 186.764C-138.166 186.57-138.241 189.331-138.22 191.991-140.177 192.838-141.316 189.694-140.915 186.764M123.2 197.629C123.128 199.965 122.064 201.273 120.893 202.458 119.367 200.936 120.099 196.765 123.2 197.629M-102.8 218.563C-103.46 219.365-103.603 220.578-103.955 220.978-104.817 221.958-107.431 217.916-106.268 216.545-105.242 215.357-101.298 217.86-101.261 214.935-100.132 217.601-101.57 217.057-102.8 218.563M81.236 227.424C80.56 227.781 80.116 228.389 79.314 228.622 80.377 225.04 82.294 222.352 85.474 220.978 84.101 223.12 84.933 223.12 85.089 226.205 82.283 225.873 83.094 227.286 83.161 229.43H82.006C82.065 228.431 81.81 227.764 81.236 227.424M73.154 234.665C72.231 235.589 70.225 235.78 70.077 233.855 72.231 233.289 72.438 230.697 72.764 228.223 74.656 230.415 75.914 228.403 78.549 228.223 78.907 231.823 77.284 233.342 75.084 234.254 74.32 233.984 75.173 232.014 74.306 231.848 73.001 233.705 75.389 234.57 74.697 237.077H73.539C73.316 236.368 74.005 234.719 73.154 234.665M4.625 251.567C4.302 254.716 1.556 255.338-.767 256.394-2.598 252.529 .573 250.618 4.625 251.567M11.547 257.607C13.779 254.201 17.187 261.944 13.477 261.232 13.146 261.164 10.548 259.129 11.547 257.607M-46.968 260.815C-46.621 262.87-45.264 263.878-44.659 265.656-48.772 266.481-48.25 262.89-46.968 260.815M-24.257 266.062C-24.776 265.226-20.098 264.26-19.247 264.849-19.487 266.335-23.131 268.145-24.257 266.062M101.641 55.144V55.547C100.252 54.719 99.654 51.943 100.103 49.511 100.435 47.676 102.58 46.229 100.494 43.468 100.389 43.333 99.387 43.611 99.333 43.468 98.833 42.038 99.748 40.983 97.023 40.248 95.861 42.173 97.188 46.252 97.414 45.478 97.164 46.353 95.233 47.166 95.104 47.093 93.311 46.066 93.139 32.556 89.324 39.038 88.217 36.722 89.418 33.752 88.554 31.796 87.046 32.505 87.539 35.289 87.401 37.425 87.496 36.418 85.145 36.817 84.709 36.226 84.397 35.804 84.714 33.459 84.319 32.598 83.721 31.309 82.378 31.807 82.006 30.589 81.828 29.981 82.213 29.173 82.006 28.568 81.449 26.885 80.235 25.843 81.627 23.744 78.74 22.691 78.425 27.58 75.852 28.165 76.845 25.868 76.188 27.459 75.084 25.759 73.765 23.738 74.516 19.325 70.462 20.524 70.822 17.749 70.936 18.615 68.534 17.304 68.324 17.188 67.864 16.108 67.764 16.099 66.787 16.003 66.701 17.259 65.836 16.901 65.096 16.595 62.398 13.743 62.759 13.682 63.758 13.501 62.118 13.673 62.377 13.682 58.43 13.524 59.216 9.966 55.447 10.864 55.695 8.202 56.669 7.428 54.287 6.434 53.727 8.933 53.815 12.111 52.364 13.682 51.813 13.181 51.637 12.297 51.589 11.264 50.388 10.805 50.658 11.894 50.057 12.066 49.169 11.25 49.917 8.728 49.664 7.242 48.377 7.236 47.106 7.242 47.359 8.852 45.254 7.433 43.886 5.235 44.274 1.205 42.99-.321 42.839 2.513 42.357 2.815 42.029 3.014 40.637 2.513 40.424 2.815 39.226 4.554 40.839 10.093 37.344 7.242 36.801 6.794 37.996 6.167 37.735 4.83 37.657 4.439 36.356 3.693 35.807 2.007 34.485-2.077 35.896-3.836 31.184-2.418 30.557-3.378 30.913-5.351 28.877-4.838 28.99-2.637 28.145 1.666 30.799 0 29.346 3.954 33.058 9.372 30.799 9.654 29.273 9.845 29.136 7.428 28.492 6.434 28.414 6.31 27.37 6.569 27.337 6.434 26.325 2.882 28.258-4.05 27.337-6.845 25.509-5.055 24.841-2.604 21.947-4.838 22.114-1.987 18.625-2.595 18.097-4.028 17.597-5.373 23.921-11.289 18.482-10.873L17.465-9.468 15.787-9.665C14.414-5.28 10.637-3.955 5.775-6.043L5.008-5.846 4.232-5.64C2.848-5.528 1.58-5.542 1.925-7.248 .436-7.597 1.295-5.488-.382-6.043-.923-8.494-3.236-8.919-1.54-11.675-2.722-11.97-2.283-10.577-3.46-10.873-3.398-12.015-3.793-13.634-2.692-13.69-3.915-14.202-6.286-10.189-8.088-12.077-9.956-14.039-5.024-14.064-5.775-16.105-7.684-14.022-9.743-17.374-11.55-16.505-9.703-15.745-11.068-11.103-13.087-10.873-13.103-10.873-14.363-11.813-14.632-11.675-16.436-10.757-17.758-9.454-17.327-6.845-17.268-6.496-16.172-5.624-16.172-5.241-16.172-4.577-17.104-3.955-17.327-2.817-18.181 1.452-15.763 5.843-20.405 5.227-17.562 6.946-22.429 12.435-25.409 9.257L-26.93 9.454-28.101 8.452C-30.336 7.242-29.113 3.904-31.569 2.406-30.513 1.371-27.853 .529-26.564 2.007L-24.881 1.807-23.481 2.815C-22.548 2.184-21.842 1.314-20.025 1.604-19.075 .357-20.908-1.886-20.795-2.817-20.642-4.022-18.77-5.016-18.477-6.445-17.844-9.569-18.819-11.714-20.405-14.495-22.187-13.724-21.132-10.662-22.327-10.071-25.756-8.357-25.899-14.641-29.261-14.495V-10.47C-31.407-9.243-31.633-13.223-32.729-14.093-34.256-15.311-36.649-13.758-36.961-16.105-37.077-16.949-35.432-17.732-36.189-18.928-37.123-18.756-37.029-19.657-38.116-19.328-37.998-15.489-38.808-9.446-42.351-9.665L-42.857-8.255-44.271-8.452C-44.131-5.483-45.585-8.092-46.589-6.845-48.525-4.433-44.365-1.824-44.271 .802-44.252 1.554-46.39 6.296-46.968 6.434-48.702 6.837-49.128 4.529-50.816 4.013-50.783 4.59-50.756 5.165-51.206 5.227-54.528 3.358-49.488 1.241-47.353 1.205-49.911-2.136-49.424-4.357-48.508-9.257L-49.914-9.057-51.206-9.665C-55.18-8.12-57.191-11.227-57.358-14.9-58.214-13.304-57.476-8.182-62.368-9.665-62.812-9.192-62.804-8.247-62.759-7.248-65.219-7.864-63.012-9.42-65.066-9.665-69.427-10.18-72.51-5.801-70.841-11.675-73.143-12.072-71.409-9.325-71.613-8.452-72.119-6.324-73.721-2.851-75.848-4.838-76.376-5.331-76.166-6.445-76.616-6.845-76.567-6.803-78.568-6.913-78.549-6.845-79.313-8.542-77.501-11.467-77.776-13.69-77.94-15.078-78.64-15.43-77.776-17.312-79.623-17.701-79.068-15.708-80.08-14.495-81.182-13.175-83.228-12.818-83.163-11.278-83.064-8.919-78.928-9.201-78.549-6.043-78.799-5.044-79.714-6.64-80.08-6.845-80.702-4.672-84.272-5.59-83.548-2.015-84.458-1.117-83.949-3.062-84.703-3.226-84.962-3.276-85.917-2.235-86.246-2.418-87.123-2.899-86.073-3.687-86.628-4.433-87.183-5.173-90.079-5.246-90.093-5.241-90.814-4.869-89.985-3.124-90.093-2.817-90.664-1.207-91.716-4.194-91.636-1.207-91.59 .267-89.175 .431-90.093 2.007-92.379 2.699-95.714 2.302-96.635 4.424-98.345 3.831-96.296 3.096-96.25 2.007-96.414 .568-97.992 .608-98.948 0-98.506-.889-97.96-1.644-98.183-3.226-99.303-2.801-100.162-2.083-102.028-2.418-102.852-5.562-99.042-3.859-98.566-5.64-101.409-4.917-102.16-9.325-105.108-8.05-105.094-8.058-105.431-6.516-105.493-6.445-105.574-6.352-106.634-6.068-106.65-6.043-106.903-5.55-106.344-4.472-106.65-4.028-107.337-3.037-107.916-3.808-108.573-3.226-109.176-2.705-109.141 .692-109.728-1.207-109.316 .129-105.681-1.3-104.728-.802-104.066-.473-102.83 3.718-100.873 3.211-103.01 1.863-105.151 4.74-107.035 4.83-107.555 4.852-107.781 3.225-107.8 3.211-109.23 2.392-111.311 4.582-111.27 4.424-111.68 6.099-106.395 8.953-107.035 5.227-105.77 6.645-106.093 8.604-106.65 9.654-107.041 10.394-111.278 12.468-111.27 12.477-112.159 12.134-112.867 9.432-112.81 8.452-112.727 6.946-111.655 7.481-114.345 6.434-114.385 10.695-118.58 10.6-121.662 11.672V14.484C-121.711 15.255-122.949 14.008-123.975 14.484-121.452 19.004-127.305 23.189-126.282 17.304-128.374 17.532-129.211 19.071-130.902 19.716-132.606 19.1-130.364 18.154-130.902 16.901-131.419 15.697-134.677 14.714-135.142 14.886-136.158 15.263-135.107 17.259-136.682 18.511-137.878 19.457-139.87 18.962-140.532 19.716-140.866 20.099-140.635 21.931-140.915 22.539-141.978 24.847-143.664 24.397-145.535 24.546-145.206 31.329-153.401 26.758-153.619 33.001L-152.271 33.808-152.467 35.418C-151.285 36.063-150.219 36.823-149.77 38.227-149.099 36.384-147.548 35.455-146.307 34.208-145.952 37.071-150.179 40.538-152.467 40.648L-153.299 41.92-154.777 41.852C-154.651 45.751-157.367 46.66-159.015 48.697-157.189 45.283-165.778 40.648-164.399 49.1-165.021 50.434-165.84 49.044-166.712 49.908-165.95 52.387-167.808 55.966-165.175 56.349-164.607 56.431-161.979 50.758-160.549 53.133-159.725 54.5-163.618 57.838-163.244 57.157-163.653 57.917-163.134 60.151-164.399 60.379L-164.208 61.379-165.175 61.584C-165.21 64.365-167.073 65.229-168.244 66.811-169.34 66.571-168.163 64.832-168.64 64.399-172.223 61.134-177.311 72.04-175.564 74.86-173.93 74.463-175.122 73.208-174.024 72.853-174.126 72.882-171.257 73.546-170.941 74.061-169.345 76.752-172.164 82.136-175.564 78.888-175.758 83.355-171.617 81.083-171.335 81.308-169.272 82.876-171.326 85.693-170.559 88.55-172.457 88.57-170.166 86.684-171.335 86.135-172.888 87.061-173.128 89.364-173.257 91.77-172.072 92.071-172.516 90.664-171.335 90.962-171.421 91.77-170.355 97.351-173.257 95.392-172.279 97.99-174.894 98.168-175.564 99.42-176.929 101.948-175.871 104.675-177.107 107.869-179.799 104.593-175.766 101.711-175.954 99.42-176.138 97.078-179.169 95.955-177.877 92.975-176.42 92.665-176.038 93.467-174.799 93.377-175.15 89.468-173.101 88.075-174.024 84.52-175.314 84.793-175.141 86.577-176.34 86.94-176.466 84.5-178.994 82.274-180.572 83.31-182.214 84.404-180.06 88.297-180.572 90.166-180.782 90.917-184.588 92.277-183.652 94.59-182.682 96.988-180.766 94.216-179.799 92.173-179.25 94.036-179.699 94.531-180.572 95.392-182.362 97.18-185.668 96.476-184.809 101.826-184.338 104.779-185.873 104.931-185.962 109.074-185.994 110.397-184.368 109.904-184.809 112.302-184.971 113.206-186.435 113.11-186.729 114.309-187.294 116.549-186.096 120.177-186.347 122.761-186.427 123.558-187.337 124.104-187.502 124.771-188.538 129.077-186.745 134.985-186.347 139.266-185.803 145.205-185.708 150.316-184.809 156.173-184.438 158.585-183.261 160.009-182.882 163.42-182.626 165.709-180.946 167.62-180.572 169.458-180.316 170.699-180.911 172.129-180.189 173.083-180.001 173.328-178.267 173.868-178.262 173.885-177.847 174.878-178.421 176.235-178.262 177.105-177.99 178.591-176.805 181-175.954 182.331-175.704 182.72-174.188 182.517-174.024 182.734-172.603 184.62-174.487 186.241-173.642 188.371-173.356 189.1-171.639 189.106-171.335 189.584-170.939 190.187-171.62 191.135-171.335 191.991-171.41 191.766-168.691 196.778-168.64 196.815-167.902 197.477-167.191 196.5-166.712 197.226-166.357 197.772-166.941 198.903-166.712 199.644-166.381 200.713-164.854 200.463-164.014 201.662-163.618 202.225-164.179 203.446-163.629 204.068-162.927 204.884-161.387 204.541-160.937 205.281-160.536 205.931-160.991 207.249-160.549 207.693-159.987 208.262-158.969 207.631-158.242 208.102-156.891 208.951-158.312 209.514-156.702 211.316-155.921 212.188-154.71 211.955-154.389 212.523-153.574 214.004-154.68 215.295-153.619 216.146-152.796 216.81-150.986 216.14-150.537 216.545-149.277 217.716-149.708 220.818-147.842 220.978-146.227 221.6-147.783 218.892-146.692 218.969-146.402 221.468-143.354 220.77-141.685 222.588-139.407 225.073-141.386 229.861-136.682 229.43-137.592 233.376-133.64 232.191-131.675 233.452-131.126 233.807-131.179 235.254-130.523 235.87-129.559 236.768-127.042 236.692-125.897 237.486-125.028 238.088-124.934 239.515-123.975 240.294-120.874 242.816-115.893 241.809-115.118 245.127-113.642 245.33-114.862 242.706-113.578 242.706-113.152 244.415-112.506 245.879-112.035 247.55-110.57 247.607-110.183 246.529-108.955 246.337-107.48 248.271-106.034 250.258-103.185 250.765-104.071 250.072-102.59 244.249-100.873 247.139-100.431 247.871-101.094 249.25-100.873 250.359-100.622 251.601-98.66 254.812-98.183 255.189-97.642 255.614-96.619 254.787-96.635 254.778-94.856 255.074-95.908 256.354-94.713 256.394-93.003 256.458-93.854 254.519-90.868 255.189-89.417 255.51-90.494 256.025-88.935 257.199-88.327 257.669-87.694 256.588-87.395 256.799-87.051 257.052-85.446 259.808-84.703 260.019-84.577 260.055-82.53 258.772-82.775 258.809-79.001 258.265-78.489 262.952-75.078 264.041-73.283 256.852-70.714 264.576-68.531 266.858-67.303 265.423-68.752 263.354-69.303 262.431-68.272 263.534-65.136 267.508-63.913 264.443-63.787 264.128-64.6 263.022-64.298 262.836-61.628 261.193-57.966 263.396-59.296 266.858-60.936 266.706-59.996 263.841-62.368 264.443-62.872 267.314-58.332 268.226-56.214 269.684-56.48 267.945-57.821 263.878-55.438 263.239-52.399 262.431-54.399 264.638-54.671 265.656-55.261 267.917-52.689 270.261-53.134 272.898-48.915 273.18-52.754 267.877-50.816 267.261-48.293 266.464-48.207 271.657-48.899 274.908-47.615 275.679-46.648 272.653-45.816 272.496-45.426 272.425-44.675 273.996-44.271 274.106-42.892 274.48-37.166 272.352-36.961 276.118-35.65 276.419-36.326 274.638-35.416 274.517-34.46 274.384-34.713 276.613-34.266 276.926-31.563 278.817-27.845 274.928-25.024 275.319-23.772 275.488-22.378 277.956-20.025 276.523-19.616 276.281-19.196 274.179-18.092 273.304-17.174 272.569-15.599 272.667-15.009 272.096-13.8 270.9-13.827 267.773-11.929 268.474L-12.129 266.557-10.78 265.254C-13.591 262.231-10.54 262.535-9.24 259.616-7.49 255.715-.17 261.136-5.005 262.431L-3.979 263.638-3.855 265.254C-2.832 267.725 1.343 266.399-.382 270.078-1.51 272.476-4.738 272.138-5.775 273.304-6.62 274.244-5.775 277.154-6.927 277.728-7.455 278.004-10.896 278.544-11.55 278.536-12.339 278.516-14.565 277.48-15.009 277.728-16.269 278.426-16.436 282.924-17.327 283.771-17.847 284.263-18.706 283.098-19.635 283.366-21.102 283.779-21.506 286.87-20.795 287.39-22.418 287.39-22.025 285.004-23.866 284.978-25.043 284.961-24.841 286.89-25.788 287.39-26.752 287.889-28.653 286.965-30.029 287.39-32.503 288.142-31.881 290.326-33.111 290.616-34.603 289.026-31.418 288.91-32.336 286.588-33.946 286.175-33.981 288.634-35.416 288.606-36.401 288.575-36.232 287.233-36.961 287.39-38.17 287.661-38.307 289.048-39.651 289-40.34 288.978-40.561 287.739-41.579 287.39-43.21 286.842-45.396 288.615-47.741 288.606-50.619 288.575-55.121 285.395-54.671 291.815L-52.773 291.621-51.973 293.425H-51.588C-53.233 298.331-39.732 298.913-38.116 295.035-37.295 293.073-40.162 293.419-38.499 291.018-37.365 292.69-37.403 296.67-35.809 297.458-34.04 298.322-23.753 297.084-21.175 295.848-20.364 295.451-19.78 293.895-19.247 293.827-18.375 293.732-18.665 294.72-17.712 295.035-15.54 295.755-8.971 293.616-6.927 292.628-6.028 292.189-5.401 291.117-4.24 290.616-3.769 290.405-2.579 291.066-2.313 291.018-1.198 290.793 5.204 287.579 5.775 286.991 6.443 286.279 7.105 284.93 6.927 284.171 10.513 286.49 16.118 278.038 16.945 280.948 17.327 282.31 13.992 283.757 13.092 284.573 12.721 284.914 13.047 285.834 12.707 286.183 11.875 287.013 9.875 286.633 10.398 288.606 13.249 287.855 15.147 286.087 18.867 285.381L19.667 283.565 21.565 283.771C21.673 280.393 23.546 278.865 26.18 278.128 26.462 281.553 23.423 283.045 24.257 285.781L25.994 285.572 26.18 287.39H26.565C27.37 287.621 26.013 288.908 26.18 289.808 28.982 288.39 31.866 289.428 33.117 286.588 33.605 285.471 33.591 279.265 35.037 278.536 36.402 277.843 38.19 280.146 38.117 280.146 39.644 280.188 43.741 276.076 43.892 274.908 44.099 273.298 43.03 271.35 41.585 270.891 41.124 270.742 40.023 271.181 39.657 270.891 38.661 270.078 39.509 269.419 38.887 268.474 38.147 267.351 35.769 266.87 34.652 265.656 33.357 264.241 33.505 261.634 31.184 262.034 34.488 267.576 27.028 267.379 25.03 264.443 23.729 264.528 24.233 265.58 22.723 265.656 21.578 265.707 22.37 264.556 21.947 264.443 21.199 264.26 19.885 265.048 18.867 264.443 18.647 264.322 16.215 259.498 16.17 259.616 17.238 256.757 20.542 259.785 22.723 258.409 24.316 257.401 22.33 255.972 24.642 255.589 25.797 256.312 22.588 259.442 25.412 259.616 24.572 255.518 29.429 257.382 28.877 253.579 25.63 255.051 26.403 250.421 23.872 249.152 21.735 248.077 17.16 250.759 18.482 246.337 20.679 246.146 21.08 248.73 23.105 247.55 21.016 244.221 21.49 241.764 24.257 239.492 27.219 237.063 28.646 238.167 27.337 231.848 27.133 230.86 26.54 231.589 26.18 230.635 25.897 229.889 26.565 228.608 26.565 228.622 26.489 228.389 25.404 228.155 25.412 228.223 25.299 226.97 26.565 225.628 26.565 224.6 26.57 224.009 25.541 223.956 25.412 223.393 24.973 221.454 26.187 219.928 27.337 218.563 25.226 215.94 20.523 216.03 16.945 214.935 17.072 214.001 17.335 213.201 18.097 212.92 15.577 210.44 12.293 210.336 9.628 208.898 8.537 208.315 7.673 207.04 6.545 206.48 1.898 204.22-3.578 206.753-9.24 205.684-9.816 205.574-10.537 204.493-11.165 204.471-12.926 204.403-16.452 205.233-17.327 206.081-17.984 206.728-17.4 208.42-18.477 208.898-19.842 209.52-24.499 206.691-25.409 208.898-26.593 211.749-27.552 216.134-29.261 218.161-30.89 220.092-31.811 218.881-32.729 221.777-33.095 222.951-34.786 225.203-36.189 225.808-37.721 226.464-44.19 226.613-46.589 226.613-51.933 226.621-58.944 225.937-63.141 224.6-68.641 222.838-75.786 222.101-81.238 220.167-82.59 219.695-84.068 219.092-85.47 218.563-87.422 217.812-89.108 216.134-90.475 215.74-91.156 215.549-91.795 216.433-92.4 216.146-92.845 215.934-93.251 214.429-93.938 214.139-94.325 213.973-95.152 214.381-95.483 214.139-95.997 213.756-95.806 212.945-96.25 212.523-98.552 210.384-102.496 210.049-105.108 208.102-111.483 203.328-117.336 199.238-122.43 193.201-123.701 191.71-123.83 190.786-125.512 189.584-128.091 187.73-132.286 182.939-133.985 179.919-134.717 178.616-134.658 176.629-135.525 175.095-135.896 174.425-136.941 174.589-137.45 173.885-138.317 172.669-138.161 170.747-138.987 168.25-142.237 158.489-148.402 147.363-147.075 132.832-146.805 129.82-147.522 125.23-147.075 121.557-146.897 120.051-145.645 118.61-145.535 117.129-145.16 112.207-144.409 105.286-143.23 99.82-142.85 98.077-141.507 96.558-140.915 94.59-140.363 92.75-140.462 90.439-139.765 88.55-136.001 78.466-128.897 67.784-122.43 58.767-121.684 57.72-120.459 57.002-120.125 55.946-119.247 53.209-120.198 54.418-117.815 53.133-116.456 52.39-115.153 49.882-113.195 47.893-111.631 46.311-109.709 45.523-108.955 44.27-108.513 43.53-108.705 42.489-108.188 41.852-107.439 40.932-105.288 40.845-105.493 39.038-102.065 41.996-101.25 36.37-99.333 35.013-99.082 34.836-97.661 35.207-97.02 35.013-97.104 35.03-90.174 32.097-89.32 30.589-88.83 29.713-89.32 28.295-88.168 27.768-86.211 26.868-81.793 28.739-80.08 26.966-79.537 26.398-79.892 24.813-79.31 24.546-78.419 24.143-75.307 24.884-73.533 24.546-69.083 23.699-55.492 20.729-54.289 16.502-53.47 13.634-55.829 10.611-53.134 8.852-51.817 8.551-52.641 10.487-51.206 10.056-49.908 7.495-45.245 5.59-46.589 11.672-50.304 7.748-51.672 14.214-52.358 18.106-49.305 19.696-42.443 16.975-38.886 16.901-36.776 16.859-32.551 19.471-33.496 14.886H-31.951C-31.55 19.018-25.832 17.231-25.788 14.084-25.18 18.092-14.904 20.69-13.862 15.694-12.673 18.427-12.901 17.197-9.619 18.511-8.914 18.798-8.82 19.643-8.473 19.716-7.046 20.02-5.355 19.237-4.24 19.716-3.077 20.211-2.843 20.017-.767 20.116 .888 20.208 1.99 22.196 4.232 22.941 6.119 23.555 8.403 22.95 9.628 23.341 10.799 23.713 11.62 25.165 13.092 25.759 15.394 26.676 18.961 26.84 22.33 28.165 27.307 30.135 32.132 34.357 35.037 34.611 38.087 34.878 37.473 34.16 39.275 37.023 40.621 39.167 43.822 39.038 46.589 41.05 49.75 43.344 50.684 46.004 51.979 46.693 53 47.223 54.069 46.502 54.672 47.093 55.355 47.749 54.925 49.044 55.447 49.908 56.252 51.253 58.244 51.318 59.294 52.325 59.992 52.992 59.636 54.255 60.062 54.733 61.222 56.062 65.333 56.65 66.606 57.962 67.511 58.879 67.729 60.174 68.149 61.584 74.258 60.281 74.048 71.314 78.549 74.061 79.271 74.497 80.531 73.585 81.236 74.061 82.388 74.821 82.087 77.424 82.779 78.888 83.01 79.38 84.72 80.197 85.089 81.308 85.751 83.293 86.362 86.09 87.784 86.94 89.596 88.027 88.659 86.431 89.703 88.55 90.145 89.426 91.857 89.482 92.021 89.763 93.249 91.809 93.305 96.257 94.719 98.607 95.362 99.69 96.932 100.098 97.023 102.232 98.108 102.567 98.02 101.663 98.951 101.826 100.12 110.403 105.51 117.76 107.041 126.789 107.591 130.073 107.114 133.49 107.424 136.848 107.881 141.931 107.531 147.98 108.191 151.743 108.67 154.49 107.758 158.818 107.041 162.204 105.614 168.881 105.983 174.431 103.574 180.322 102.532 182.849 100.663 186.306 98.951 189.176 96.606 193.105 94.086 197.78 92.021 200.446 90.347 202.608 87.253 204.665 85.474 206.891 84.523 208.076 84.039 209.773 83.161 210.913 81.427 213.173 79.279 214.665 77.389 216.545 74.567 219.368 72.37 223.43 69.304 225.808 67.446 227.243 64.458 229.518 64.681 233.053 63.847 233.939 63.214 231.848 63.144 231.848 61.483 231.876 59.749 239.349 63.526 240.294 67.166 241.215 62.967 239.658 65.072 239.09 65.863 238.876 67.433 239.712 66.994 236.275 69.748 237.322 68.138 241.085 70.462 243.914 71.977 243.9 72.75 243.092 72.764 241.507 75.467 242.98 75.251 239.239 78.167 240.694 77.276 237.227 80.668 237.787 82.006 236.678 83.385 235.529 83.786 232.507 86.252 233.053V233.855L87.304 233.658 87.784 234.665C89.383 233.053 89.507 236.036 90.866 235.87 90.826 235.876 95.484 232.253 95.869 231.848 96.773 230.897 96.913 228.915 97.796 228.622 98.878 229.321 98.157 229.678 98.181 231.046 99.605 230.199 102.432 231.671 103.961 229.43 104.947 227.969 103.878 224.963 105.108 223.393 105.488 222.903 106.659 223.894 107.424 223.393 107.68 223.221 108.544 220.778 109.728 219.765 111.769 218.037 112.396 219.23 113.201 217.755 113.495 217.195 112.746 215.324 113.201 214.139 113.734 212.709 115.331 212.377 115.509 211.721 115.832 210.514 113.446 208.22 115.509 206.48 118.012 204.383 121.135 207.823 123.2 204.471 123.844 205.481 122.762 207.738 123.593 209.3 125.71 209.773 123.884 206.117 125.518 206.081 126.366 206.131 125.677 207.795 125.903 208.501 126.727 205.543 132.785 202.382 127.82 200.446 129.002 198.853 132.165 199.343 131.684 196.013 129.958 196.109 129.944 197.969 127.82 197.629 127.093 195.388 129.288 196.204 129.366 194.811L128.332 194.499 128.983 193.607C127.123 191.085 125.618 193.443 124.361 194.811 125.201 191.833 126.768 188.262 130.521 189.584L131.624 189.044 132.448 189.984C134.414 187.927 133.329 186.173 134.761 184.347 136.524 182.078 139.41 182.551 139.766 178.712 137.41 179.351 136.091 177.364 136.298 174.69 136.395 173.494 137.604 173.547 138.226 171.87 139.938 167.237 136.748 164.799 139.766 163.42 139.464 162.387 138.659 161.886 137.068 162.204 137.722 158.194 141.392 157.366 141.683 153.764 141.788 152.508 139.203 148.514 142.458 146.513 143.384 146.882 142.221 149.44 143.995 148.931 144.647 143.493 147.054 141.219 145.156 136.848 143.295 137.588 141.788 138.711 140.918 140.47 137.776 136.527 143.169 134.222 143.225 130.408 143.258 128.317 142.598 126.516 143.225 123.563 136.732 123.665 141.422 116.397 142.073 113.501 141.066 113.397 140.415 113.65 140.533 114.706 139.742 111.767 140.463 108.033 139.375 103.847 138.185 103.805 138.226 105.061 138.226 106.259 136.931 106.538 136.961 105.429 136.298 105.052 134.298 106.89 136.169 108.382 135.913 111.492 135.068 111.801 132.688 110.664 132.448 109.882 132.682 110.656 133.393 106.67 133.986 105.86 134.637 104.976 136.724 104.627 137.068 103.847 138.177 101.345 135.477 97.892 135.913 94.987 136.298 92.432 138.487 93.042 138.226 90.962 136.694 90.487 136.594 91.241 135.528 90.962 132.596 90.194 134.249 87.191 132.448 84.925 132.026 84.39 130.771 85.288 130.521 84.52 129.963 82.837 130.932 80.388 130.521 78.485 130.502 78.39 129.39 78.575 129.366 78.485 128.843 76.374 129.183 73.732 127.82 73.661 126.146 73.566 127.578 75.766 125.903 75.266L124.557 75.471 123.593 74.463C123.728 79.89 116.768 78.916 117.81 72.853 119.275 72.265 118.556 73.957 119.743 73.661 119.652 71.283 121.833 71.277 121.278 68.426L119.544 68.224 119.743 66.408C116.16 65.64 115.923 62.87 114.73 68.826 112.267 67.708 112.727 63.174 113.966 61.179 112.811 61.742 111.169 61.767 110.883 60.379L109.537 60.571 109.728 59.166C109.782 58.164 109.537 57.494 108.961 57.157 107.693 57.3 107.491 58.569 107.041 59.569 105.582 58.403 106.659 54.59 103.961 54.733L102.866 55.344Z" fill="#231f20" fill-rule="evenodd"/>
<path transform="matrix(1,0,0,-1,385.6537,144.7009)" d="M0 0 1.731-.827C.872-3.341 3.559-2.142 3.656-3.65 3.419-4.472 1.855-3.513 .964-4.447 .199-5.26 1.424-7.219-.188-7.672-4.189-8.815-11.262-7.701-11.744-6.87-12.627-5.342-9.929-4.385-11.744-3.245L-11.143-1.905-12.126-.827C-7.711-.754-4.935 1.666 .191 1.981Z" fill="#231f20" fill-rule="evenodd"/>
<path transform="matrix(1,0,0,-1,366.213,150.16669)" d="M0 0 1.534 .205C1.632-4.821 4.55 .478 6.542-.999 5.743-6.029 .611-6.831-3.465-7.042-4.932-7.112-8.171-5.137-7.7-8.646-7.958-8.593-9.396-8.7-9.625-8.247-10.481-6.597-8.551-6.558-7.7-4.624-6.817-2.595-7.913-2.803-6.16-.999-5.202-.009-2.049 1.213-.77 1.413Z" fill="#231f20" fill-rule="evenodd"/>
<path transform="matrix(1,0,0,-1,350.8105,154.79102)" d="M0 0C-4.348-2.733 4.493-7.295-2.307-8.447-2.482-3.864-5.955-1.027 0 0" fill="#231f20" fill-rule="evenodd"/>
<path transform="matrix(1,0,0,-1,335.7959,161.2308)" d="M0 0C1.699 2.173 3.338-.616 4.235 1.205 5.656 .918 3.034-1.095 4.999-.808L4.811-2.39 5.772-3.625C4.604-7.729-.162-6.783 .773-2.823L1.028-1.213Z" fill="#231f20" fill-rule="evenodd"/>
<path transform="matrix(1,0,0,-1,276.8839,213.15369)" d="M0 0C1.378 1.63 3.236 5.995 5.01 6.034 5.662 6.057 8.023 4.123 8.09 3.622 8.311 1.987 3.564-2.294 1.928-2.412L1.833-.459Z" fill="#231f20" fill-rule="evenodd"/>
<path transform="matrix(1,0,0,-1,323.005,174.53519)" d="M0 0C1.16 2.063 4.52 1.328 5.285 3.85" fill="#231f20" fill-rule="evenodd"/>
<path transform="matrix(1,0,0,-1,294.1494,194.97159)" d="M0 0C-1.346-1.506-1.548-4.515-4.135-4.537" fill="#231f20" fill-rule="evenodd"/>
<path transform="matrix(1,0,0,-1,588.3638,272.3299)" d="M0 0C2.646-3.324 2.45-7.231 2.315-11.267" fill="#231f20" fill-rule="evenodd"/>
<path transform="matrix(1,0,0,-1,293.2528,403.9458)" d="M0 0C-1.602 1.753-1.96 5.564-1.028 8.112" fill="#231f20" fill-rule="evenodd"/>
<path transform="matrix(1,0,0,-1,276.3023,377.9856)" d="M0 0C1.769-1.883 3.185 1.433 5.013 1.61" fill="#231f20" fill-rule="evenodd"/>
<path transform="matrix(1,0,0,-1,366.213,150.16669)" d="M0 0C1.736 2.899 5.554 2.361 8.297 3.56" fill="#231f20" fill-rule="evenodd"/>
<path transform="matrix(1,0,0,-1,385.6537,144.7009)" d="M0 0C2.259 1.174 6.114 1.756 7.097-1.433" fill="#231f20" fill-rule="evenodd"/>
<path transform="matrix(1,0,0,-1,465.1904,154.18881)" d="M0 0C.988 3.507 4.111 6.44 6.327 2.007" fill="#231f20" fill-rule="evenodd"/>
<path transform="matrix(1,0,0,-1,533.4984,200.2067)" d="M0 0C-3.452 1.328-2.089-2.423-.671-3.89" fill="#231f20" fill-rule="evenodd"/>
<path transform="matrix(1,0,0,-1,557.6533,384.6744)" d="M0 0C2.095 2.467-.993 5.614-2.593 7.491" fill="#231f20" fill-rule="evenodd"/>
<path transform="matrix(1,0,0,-1,551.7249,385.7693)" d="M0 0C-1.933-3.037-4.488 1.148-3.336 3.359" fill="#231f20" fill-rule="evenodd"/>
<path transform="matrix(1,0,0,-1,441.5443,174.11582)" d="M0 0C-2.937 .279-4.935 4.562-8.149 2.919" fill="#231f20" fill-rule="evenodd"/>
<path transform="matrix(1,0,0,-1,577.1479,248.7102)" d="M0 0C-.643 2.145-.342 5.232-3.293 5.455" fill="#231f20" fill-rule="evenodd"/>
<path transform="matrix(1,0,0,-1,565.0677,369.53059)" d="M0 0C4.437-4.532 5.864 3.932 5.013 7.247" fill="#231f20" fill-rule="evenodd"/>
<path transform="matrix(1,0,0,-1,420.6416,435.9473)" d="M0 0C.366 3.023-.697 5.125-2.049 7.647" fill="#231f20" fill-rule="evenodd"/>
<path transform="matrix(1,0,0,-1,340.6069,163.62039)" d="M0 0C3.112-.495 4.674 1.799 4.24 4.807" fill="#231f20" fill-rule="evenodd"/>
<path transform="matrix(1,0,0,-1,331.1383,164.81369)" d="M0 0C2.267-.07 3.387 2.17 5.686 2.37" fill="#231f20" fill-rule="evenodd"/>
<path transform="matrix(1,0,0,-1,273.104,224.11371)" d="M0 0C1.979 3.144 2.305 7.971 5.613 10.501" fill="#231f20" fill-rule="evenodd"/>
</g>
</g>
</svg>
