<svg width="425" height="45" viewBox="0 0 425 45" fill="none" xmlns="http://www.w3.org/2000/svg">
<path d="M18.48 15.0641H26.459V43.6841H20.52L19.68 40.4441H19.44C19 40.8851 18.49 41.3351 17.91 41.7941C17.33 42.2541 16.65 42.6741 15.87 43.0541C15.09 43.4351 14.209 43.7441 13.23 43.9841C12.25 44.2241 11.16 44.3441 9.95901 44.3441C6.879 44.3441 4.45 43.4841 2.669 41.7641C0.888996 40.0451 0 37.5041 0 34.1441V15.0641H7.98V33.4841C7.98 35.2051 8.389 36.4451 9.20901 37.2041C10.029 37.9641 11.08 38.3441 12.36 38.3441C13.8 38.3441 15.03 38.0441 16.05 37.4441C17.07 36.8441 17.88 36.1451 18.48 35.3441V15.0641Z" fill="#DEE3DD"/>
<path d="M33.8992 0.844177H41.7592V43.6842H33.8992V0.844177Z" fill="#DEE3DD"/>
<path d="M66.9586 15.0641H75.4186L65.2776 43.6841H56.0386L46.1976 15.0641H54.7186L58.9186 29.3441L60.6576 37.9841H60.8976L62.6386 29.3441L66.9586 15.0641Z" fill="#DEE3DD"/>
<path d="M80.2182 15.0642H88.1982V43.6842H80.2182V15.0642ZM84.2392 8.94418C82.8782 8.94418 81.8182 8.55417 81.0582 7.77417C80.2982 6.99417 79.9182 6.02519 79.9182 4.86419C79.9182 3.70519 80.2982 2.73419 81.0582 1.95419C81.8182 1.17419 82.8782 0.78418 84.2392 0.78418C85.5582 0.78418 86.6092 1.17419 87.3882 1.95419C88.1682 2.73419 88.5582 3.70519 88.5582 4.86419C88.5582 6.02519 88.1782 6.99417 87.4182 7.77417C86.6582 8.55417 85.5982 8.94418 84.2392 8.94418Z" fill="#DEE3DD"/>
<path d="M104.157 34.0841V43.6841H96.2368V0.844078H104.157V26.2841L113.758 15.0641H123.418L112.378 27.1241L123.958 43.6841H114.537L106.498 31.7441L104.157 34.0841Z" fill="#DEE3DD"/>
<path d="M138.898 0.784279C140.017 0.784279 141.187 0.944278 142.408 1.26428C143.627 1.58428 144.717 1.98428 145.678 2.46428L144.598 6.12428C143.797 5.80428 143.038 5.55428 142.318 5.37428C141.598 5.19428 140.837 5.10428 140.038 5.10428C138.118 5.10428 136.748 5.64427 135.928 6.72427C135.108 7.80427 134.698 9.64427 134.698 12.2443V15.4843H143.278V19.4443H134.698V43.6843H129.478V19.4443H125.337V15.4843H129.478V10.5043C129.478 7.38428 130.288 4.98428 131.908 3.30428C133.528 1.62428 135.858 0.784279 138.898 0.784279Z" fill="#DEE3DD"/>
<path d="M147.176 43.6842V15.4842H151.136L152.036 21.1242C152.716 19.3242 153.836 17.8642 155.396 16.7442C156.956 15.6242 158.756 15.0642 160.796 15.0642C161.836 15.0642 162.696 15.1442 163.376 15.3042C164.056 15.4642 164.675 15.6642 165.236 15.9042L164.216 20.5242C163.736 20.2842 163.205 20.0842 162.626 19.9242C162.046 19.7652 161.356 19.6842 160.556 19.6842C159.396 19.6842 158.325 19.8852 157.346 20.2842C156.365 20.6842 155.506 21.2842 154.766 22.0842C154.026 22.8852 153.447 23.8742 153.026 25.0542C152.606 26.2342 152.396 27.5842 152.396 29.1042V43.6842H147.176Z" fill="#DEE3DD"/>
<path d="M188.517 15.484H193.796V43.684H189.657L188.937 40.144H188.697C187.656 41.305 186.366 42.274 184.827 43.054C183.287 43.834 181.496 44.224 179.456 44.224C176.537 44.224 174.166 43.395 172.346 41.734C170.526 40.075 169.617 37.564 169.617 34.204V15.484H174.897V33.544C174.897 34.744 175.046 35.764 175.346 36.604C175.647 37.444 176.046 38.114 176.546 38.614C177.046 39.115 177.636 39.475 178.317 39.694C178.996 39.915 179.736 40.024 180.537 40.024C182.136 40.024 183.576 39.685 184.857 39.004C186.136 38.324 187.356 37.384 188.517 36.184V15.484Z" fill="#DEE3DD"/>
<path d="M207.236 33.3644V43.6844H202.015V1.08439H207.236V27.6044L218.576 15.4844H225.116L213.536 27.3644L225.656 43.6844H219.416L210.055 30.5444L207.236 33.3644Z" fill="#DEE3DD"/>
<path d="M245.395 19.444H237.115V35.824C237.115 37.225 237.464 38.164 238.165 38.644C238.864 39.124 239.774 39.364 240.895 39.364C241.694 39.364 242.575 39.274 243.535 39.094C244.495 38.914 245.334 38.704 246.054 38.464L246.895 42.484C246.094 42.805 245.074 43.084 243.834 43.324C242.594 43.564 241.294 43.684 239.935 43.684C237.134 43.684 235.094 43.075 233.815 41.854C232.534 40.634 231.895 38.864 231.895 36.544V19.444H227.695V15.484H231.895V6.48397H237.115V15.484H245.395V19.444Z" fill="#DEE3DD"/>
<path d="M255.294 32.4044C255.294 34.9244 256.124 36.8344 257.784 38.1344C259.443 39.4344 261.654 40.0844 264.414 40.0844C265.254 40.0844 266.124 39.9854 267.024 39.7844C267.924 39.5844 268.794 39.2954 269.634 38.9144C270.474 38.5344 271.244 38.0844 271.944 37.5644C272.644 37.0454 273.234 36.4644 273.714 35.8244L261.954 23.8844C261.073 24.3244 260.233 24.8244 259.434 25.3844C258.634 25.9454 257.924 26.5744 257.304 27.2744C256.684 27.9744 256.194 28.7544 255.834 29.6144C255.474 30.4744 255.294 31.4044 255.294 32.4044ZM250.134 32.5244C250.134 31.0454 250.384 29.7044 250.884 28.5044C251.384 27.3044 252.054 26.2244 252.894 25.2644C253.734 24.3044 254.714 23.4644 255.834 22.7444C256.953 22.0244 258.153 21.4044 259.434 20.8844C258.394 19.7244 257.484 18.3944 256.704 16.8944C255.924 15.3944 255.534 13.7444 255.534 11.9444C255.534 10.6244 255.794 9.44539 256.315 8.40439C256.833 7.36439 257.544 6.47439 258.444 5.73439C259.344 4.99439 260.403 4.43439 261.624 4.05439C262.844 3.67439 264.134 3.48439 265.494 3.48439C266.854 3.48439 268.124 3.68439 269.304 4.08439C270.483 4.48439 271.503 5.05439 272.364 5.79439C273.224 6.53439 273.894 7.42439 274.374 8.46439C274.854 9.50539 275.094 10.6444 275.094 11.8844C275.094 14.0054 274.554 15.7644 273.474 17.1644C272.394 18.5654 270.974 19.7044 269.214 20.5844L266.754 17.6444C267.794 17.0844 268.623 16.3444 269.244 15.4244C269.863 14.5044 270.174 13.4244 270.174 12.1844C270.174 10.7844 269.724 9.64439 268.824 8.76439C267.924 7.88439 266.773 7.44439 265.374 7.44439C263.854 7.44439 262.674 7.8644 261.834 8.7044C260.994 9.5444 260.574 10.6444 260.574 12.0044C260.574 13.8044 261.073 15.4544 262.074 16.9544C263.073 18.4544 264.514 20.1444 266.394 22.0244L276.474 32.2244C277.153 31.1844 277.794 29.9744 278.394 28.5944C278.994 27.2144 279.514 25.8844 279.954 24.6044L284.274 26.3444C283.634 28.1444 282.914 29.8244 282.114 31.3844C281.314 32.9444 280.514 34.3244 279.714 35.5244L287.815 43.6844H281.334L276.774 39.0044C276.213 39.6444 275.523 40.2744 274.704 40.8944C273.884 41.5144 272.934 42.0644 271.854 42.5444C270.774 43.0244 269.564 43.4144 268.224 43.7144C266.884 44.0144 265.413 44.1644 263.815 44.1644C261.733 44.1644 259.854 43.8734 258.174 43.2944C256.494 42.7154 255.054 41.9044 253.854 40.8644C252.654 39.8244 251.733 38.5944 251.094 37.1744C250.454 35.7554 250.134 34.2044 250.134 32.5244Z" fill="#DEE3DD"/>
<path d="M305.274 40.1442C306.553 40.1442 307.674 40.0042 308.634 39.7242C309.594 39.4452 310.534 39.0842 311.454 38.6442L312.594 42.6042C310.434 43.6842 307.854 44.2242 304.854 44.2242C302.814 44.2242 300.904 43.9242 299.124 43.3242C297.343 42.7242 295.784 41.8152 294.444 40.5942C293.103 39.3742 292.053 37.8542 291.295 36.0342C290.534 34.2142 290.154 32.0842 290.154 29.6442C290.154 27.4042 290.514 25.3842 291.234 23.5842C291.954 21.7842 292.954 20.2542 294.234 18.9942C295.513 17.7342 297.054 16.7652 298.854 16.0842C300.654 15.4042 302.634 15.0642 304.795 15.0642C306.034 15.0642 307.244 15.1542 308.424 15.3342C309.603 15.5142 310.954 15.9442 312.474 16.6242L311.274 20.6442C309.434 19.6042 307.454 19.0842 305.334 19.0842C302.414 19.0842 300.054 19.9952 298.254 21.8142C296.454 23.6352 295.554 26.1852 295.554 29.4642C295.554 31.5042 295.834 33.2052 296.394 34.5642C296.954 35.9242 297.693 37.0152 298.614 37.8342C299.534 38.6542 300.574 39.2442 301.734 39.6042C302.894 39.9642 304.074 40.1442 305.274 40.1442Z" fill="#DEE3DD"/>
<path d="M319.253 15.4842H324.533V43.6842H319.253V15.4842ZM321.893 8.22418C320.973 8.22418 320.183 7.91419 319.524 7.29419C318.864 6.67419 318.534 5.90519 318.534 4.98419C318.534 4.06419 318.864 3.28419 319.524 2.64419C320.183 2.00519 320.973 1.68417 321.893 1.68417C322.773 1.68417 323.553 2.00519 324.234 2.64419C324.913 3.28419 325.253 4.06419 325.253 4.98419C325.253 5.90519 324.913 6.67419 324.234 7.29419C323.553 7.91419 322.773 8.22418 321.893 8.22418Z" fill="#DEE3DD"/>
<path d="M351.892 22.2643C350.011 20.1443 347.791 19.0843 345.232 19.0843C344.152 19.0843 343.102 19.2743 342.082 19.6543C341.062 20.0353 340.163 20.6443 339.382 21.4843C338.602 22.3243 337.972 23.4043 337.493 24.7243C337.012 26.0443 336.772 27.6243 336.772 29.4643C336.772 31.3843 336.992 33.0143 337.432 34.3543C337.871 35.6953 338.461 36.7943 339.203 37.6543C339.942 38.5143 340.782 39.1443 341.722 39.5443C342.662 39.9443 343.612 40.1443 344.573 40.1443C347.573 40.1443 350.011 38.8453 351.892 36.2443V22.2643ZM351.892 1.08427H357.172V43.6843H352.732L352.073 40.5643H351.892C350.652 41.8453 349.402 42.7753 348.142 43.3543C346.882 43.9333 345.292 44.2243 343.372 44.2243C341.852 44.2243 340.381 43.9243 338.962 43.3243C337.541 42.7243 336.272 41.8243 335.152 40.6243C334.032 39.4243 333.132 37.9143 332.453 36.0943C331.772 34.2743 331.432 32.1243 331.432 29.6443C331.432 27.4453 331.722 25.4443 332.302 23.6443C332.881 21.8443 333.712 20.3053 334.792 19.0243C335.872 17.7443 337.192 16.7643 338.752 16.0843C340.312 15.4043 342.091 15.0643 344.092 15.0643C345.572 15.0643 346.982 15.2953 348.323 15.7543C349.662 16.2143 350.852 16.9043 351.892 17.8243V1.08427Z" fill="#DEE3DD"/>
<path d="M383.872 26.4044C383.872 25.3644 383.741 24.3944 383.482 23.4944C383.222 22.5944 382.822 21.8044 382.282 21.1244C381.742 20.4444 381.052 19.9044 380.212 19.5044C379.372 19.1044 378.351 18.9044 377.152 18.9044C374.951 18.9044 373.162 19.6044 371.782 21.0044C370.402 22.4044 369.552 24.2444 369.232 26.5244L383.872 26.4044ZM389.332 30.1844H369.112V30.4244C369.112 33.5444 369.961 35.9444 371.662 37.6244C373.361 39.3044 375.672 40.1444 378.592 40.1444C380.111 40.1444 381.462 40.0244 382.642 39.7844C383.821 39.5444 385.111 39.1444 386.512 38.5844L387.592 42.4844C386.432 43.0044 385.061 43.4244 383.482 43.7444C381.901 44.0644 380.212 44.2244 378.412 44.2244C376.372 44.2244 374.461 43.9444 372.682 43.3844C370.901 42.8244 369.331 41.9544 367.972 40.7744C366.611 39.5944 365.542 38.0844 364.762 36.2444C363.982 34.4044 363.592 32.2044 363.592 29.6444C363.592 27.4454 363.922 25.4444 364.582 23.6444C365.242 21.8444 366.172 20.3144 367.372 19.0544C368.572 17.7944 370.021 16.8144 371.722 16.1144C373.422 15.4144 375.331 15.0644 377.452 15.0644C379.252 15.0644 380.881 15.3644 382.342 15.9644C383.802 16.5644 385.052 17.4044 386.092 18.4844C387.132 19.5644 387.932 20.8644 388.492 22.3844C389.052 23.9044 389.332 25.5844 389.332 27.4244V30.1844Z" fill="#DEE3DD"/>
<path d="M395.452 43.6842V15.4842H399.412L400.312 21.1242C400.992 19.3242 402.112 17.8642 403.672 16.7442C405.232 15.6242 407.032 15.0642 409.072 15.0642C410.112 15.0642 410.972 15.1442 411.652 15.3042C412.332 15.4642 412.951 15.6642 413.512 15.9042L412.492 20.5242C412.012 20.2842 411.481 20.0842 410.902 19.9242C410.322 19.7652 409.632 19.6842 408.832 19.6842C407.672 19.6842 406.601 19.8852 405.622 20.2842C404.641 20.6842 403.782 21.2842 403.042 22.0842C402.302 22.8852 401.723 23.8742 401.302 25.0542C400.882 26.2342 400.672 27.5842 400.672 29.1042V43.6842H395.452Z" fill="#DEE3DD"/>
<path d="M418.432 15.4842H423.712V43.6842H418.432V15.4842ZM421.072 8.22418C420.152 8.22418 419.362 7.91419 418.702 7.29419C418.042 6.67419 417.712 5.90519 417.712 4.98419C417.712 4.06419 418.042 3.28419 418.702 2.64419C419.362 2.00519 420.152 1.68417 421.072 1.68417C421.952 1.68417 422.732 2.00519 423.412 2.64419C424.092 3.28419 424.432 4.06419 424.432 4.98419C424.432 5.90519 424.092 6.67419 423.412 7.29419C422.732 7.91419 421.952 8.22418 421.072 8.22418Z" fill="#DEE3DD"/>
</svg>
