<svg width="426" height="45" viewBox="0 0 426 45" fill="none" xmlns="http://www.w3.org/2000/svg">
<path d="M19.3818 15.0639H27.3608V43.6839H21.4218L20.5818 40.4439H20.3418C19.9018 40.8849 19.3918 41.3349 18.8118 41.7939C18.2318 42.2539 17.5518 42.6739 16.7718 43.0539C15.9918 43.4349 15.1108 43.7439 14.1318 43.9839C13.1518 44.2239 12.0618 44.3439 10.8608 44.3439C7.78079 44.3439 5.35179 43.4839 3.57079 41.7639C1.79079 40.0449 0.901794 37.5039 0.901794 34.1439V15.0639H8.88179V33.4839C8.88179 35.2049 9.29079 36.4449 10.1108 37.2039C10.9308 37.9639 11.9818 38.3439 13.2618 38.3439C14.7018 38.3439 15.9318 38.0439 16.9518 37.4439C17.9718 36.8439 18.7818 36.1449 19.3818 35.3439V15.0639Z" fill="#231F20"/>
<path d="M34.801 0.843994H42.661V43.684H34.801V0.843994Z" fill="#231F20"/>
<path d="M67.8604 15.0639H76.3204L66.1794 43.6839H56.9404L47.0994 15.0639H55.6204L59.8204 29.3439L61.5594 37.9839H61.7994L63.5404 29.3439L67.8604 15.0639Z" fill="#231F20"/>
<path d="M81.12 15.064H89.1V43.684H81.12V15.064ZM85.141 8.944C83.78 8.944 82.72 8.55399 81.96 7.77399C81.2 6.99399 80.82 6.02501 80.82 4.86401C80.82 3.70501 81.2 2.73401 81.96 1.95401C82.72 1.17401 83.78 0.783997 85.141 0.783997C86.46 0.783997 87.511 1.17401 88.29 1.95401C89.07 2.73401 89.46 3.70501 89.46 4.86401C89.46 6.02501 89.08 6.99399 88.32 7.77399C87.56 8.55399 86.5 8.944 85.141 8.944Z" fill="#231F20"/>
<path d="M105.059 34.0839V43.6839H97.1386V0.843895H105.059V26.2839L114.66 15.0639H124.32L113.28 27.1239L124.86 43.6839H115.439L107.4 31.7439L105.059 34.0839Z" fill="#231F20"/>
<path d="M139.8 0.784096C140.919 0.784096 142.089 0.944095 143.31 1.2641C144.529 1.5841 145.619 1.9841 146.58 2.4641L145.5 6.1241C144.699 5.8041 143.94 5.5541 143.22 5.3741C142.5 5.1941 141.739 5.1041 140.94 5.1041C139.02 5.1041 137.65 5.64409 136.83 6.72409C136.01 7.80409 135.6 9.64409 135.6 12.2441V15.4841H144.18V19.4441H135.6V43.6841H130.38V19.4441H126.239V15.4841H130.38V10.5041C130.38 7.3841 131.19 4.9841 132.81 3.3041C134.43 1.6241 136.76 0.784096 139.8 0.784096Z" fill="#231F20"/>
<path d="M148.078 43.684V15.484H152.038L152.938 21.124C153.618 19.324 154.738 17.864 156.298 16.744C157.858 15.624 159.658 15.064 161.698 15.064C162.738 15.064 163.598 15.144 164.278 15.304C164.958 15.464 165.577 15.664 166.138 15.904L165.118 20.524C164.638 20.284 164.107 20.084 163.528 19.924C162.948 19.765 162.258 19.684 161.458 19.684C160.298 19.684 159.227 19.885 158.248 20.284C157.267 20.684 156.408 21.284 155.668 22.084C154.928 22.885 154.349 23.874 153.928 25.054C153.508 26.234 153.298 27.584 153.298 29.104V43.684H148.078Z" fill="#231F20"/>
<path d="M189.419 15.4838H194.698V43.6838H190.559L189.839 40.1438H189.599C188.558 41.3048 187.268 42.2738 185.729 43.0538C184.189 43.8338 182.398 44.2238 180.358 44.2238C177.439 44.2238 175.068 43.3948 173.248 41.7338C171.428 40.0748 170.519 37.5638 170.519 34.2038V15.4838H175.799V33.5438C175.799 34.7438 175.948 35.7638 176.248 36.6038C176.549 37.4438 176.948 38.1138 177.448 38.6138C177.948 39.1148 178.538 39.4748 179.219 39.6938C179.898 39.9148 180.638 40.0238 181.439 40.0238C183.038 40.0238 184.478 39.6848 185.759 39.0038C187.038 38.3238 188.258 37.3838 189.419 36.1838V15.4838Z" fill="#231F20"/>
<path d="M208.138 33.3642V43.6842H202.917V1.08421H208.138V27.6042L219.478 15.4842H226.018L214.438 27.3642L226.558 43.6842H220.318L210.957 30.5442L208.138 33.3642Z" fill="#231F20"/>
<path d="M246.297 19.4438H238.017V35.8238C238.017 37.2248 238.366 38.1638 239.067 38.6438C239.766 39.1238 240.676 39.3638 241.797 39.3638C242.596 39.3638 243.477 39.2738 244.437 39.0938C245.397 38.9138 246.236 38.7038 246.956 38.4638L247.797 42.4838C246.996 42.8048 245.976 43.0838 244.736 43.3238C243.496 43.5638 242.196 43.6838 240.837 43.6838C238.036 43.6838 235.996 43.0748 234.717 41.8538C233.436 40.6338 232.797 38.8638 232.797 36.5438V19.4438H228.597V15.4838H232.797V6.48379H238.017V15.4838H246.297V19.4438Z" fill="#231F20"/>
<path d="M256.196 32.4042C256.196 34.9242 257.026 36.8342 258.686 38.1342C260.345 39.4342 262.556 40.0842 265.316 40.0842C266.156 40.0842 267.026 39.9852 267.926 39.7842C268.826 39.5842 269.696 39.2952 270.536 38.9142C271.376 38.5342 272.146 38.0842 272.846 37.5642C273.546 37.0452 274.136 36.4642 274.616 35.8242L262.856 23.8842C261.975 24.3242 261.135 24.8242 260.336 25.3842C259.536 25.9452 258.826 26.5742 258.206 27.2742C257.586 27.9742 257.096 28.7542 256.736 29.6142C256.376 30.4742 256.196 31.4042 256.196 32.4042ZM251.036 32.5242C251.036 31.0452 251.286 29.7042 251.786 28.5042C252.286 27.3042 252.956 26.2242 253.796 25.2642C254.636 24.3042 255.616 23.4642 256.736 22.7442C257.855 22.0242 259.055 21.4042 260.336 20.8842C259.296 19.7242 258.386 18.3942 257.606 16.8942C256.826 15.3942 256.436 13.7442 256.436 11.9442C256.436 10.6242 256.696 9.44521 257.217 8.40421C257.735 7.36421 258.446 6.47421 259.346 5.73421C260.246 4.99421 261.305 4.43421 262.526 4.05421C263.746 3.67421 265.036 3.48421 266.396 3.48421C267.756 3.48421 269.026 3.68421 270.206 4.08421C271.385 4.48421 272.405 5.05421 273.266 5.79421C274.126 6.53421 274.796 7.42421 275.276 8.46421C275.756 9.50521 275.996 10.6442 275.996 11.8842C275.996 14.0052 275.456 15.7642 274.376 17.1642C273.296 18.5652 271.876 19.7042 270.116 20.5842L267.656 17.6442C268.696 17.0842 269.525 16.3442 270.146 15.4242C270.765 14.5042 271.076 13.4242 271.076 12.1842C271.076 10.7842 270.626 9.64421 269.726 8.76421C268.826 7.88421 267.675 7.44421 266.276 7.44421C264.756 7.44421 263.576 7.86422 262.736 8.70422C261.896 9.54422 261.476 10.6442 261.476 12.0042C261.476 13.8042 261.975 15.4542 262.976 16.9542C263.975 18.4542 265.416 20.1442 267.296 22.0242L277.376 32.2242C278.055 31.1842 278.696 29.9742 279.296 28.5942C279.896 27.2142 280.416 25.8842 280.856 24.6042L285.176 26.3442C284.536 28.1442 283.816 29.8242 283.016 31.3842C282.216 32.9442 281.416 34.3242 280.616 35.5242L288.717 43.6842H282.236L277.676 39.0042C277.115 39.6442 276.425 40.2742 275.606 40.8942C274.786 41.5142 273.836 42.0642 272.756 42.5442C271.676 43.0242 270.466 43.4142 269.126 43.7142C267.786 44.0142 266.315 44.1642 264.717 44.1642C262.635 44.1642 260.756 43.8732 259.076 43.2942C257.396 42.7152 255.956 41.9042 254.756 40.8642C253.556 39.8242 252.635 38.5942 251.996 37.1742C251.356 35.7552 251.036 34.2042 251.036 32.5242Z" fill="#231F20"/>
<path d="M306.176 40.144C307.455 40.144 308.576 40.004 309.536 39.724C310.496 39.445 311.436 39.084 312.356 38.644L313.496 42.604C311.336 43.684 308.756 44.224 305.756 44.224C303.716 44.224 301.806 43.924 300.026 43.324C298.245 42.724 296.686 41.815 295.346 40.594C294.005 39.374 292.955 37.854 292.197 36.034C291.436 34.214 291.056 32.084 291.056 29.644C291.056 27.404 291.416 25.384 292.136 23.584C292.856 21.784 293.856 20.254 295.136 18.994C296.415 17.734 297.956 16.765 299.756 16.084C301.556 15.404 303.536 15.064 305.697 15.064C306.936 15.064 308.146 15.154 309.326 15.334C310.505 15.514 311.856 15.944 313.376 16.624L312.176 20.644C310.336 19.604 308.356 19.084 306.236 19.084C303.316 19.084 300.956 19.995 299.156 21.814C297.356 23.635 296.456 26.185 296.456 29.464C296.456 31.504 296.736 33.205 297.296 34.564C297.856 35.924 298.595 37.015 299.516 37.834C300.436 38.654 301.476 39.244 302.636 39.604C303.796 39.964 304.976 40.144 306.176 40.144Z" fill="#231F20"/>
<path d="M320.155 15.484H325.435V43.684H320.155V15.484ZM322.795 8.224C321.875 8.224 321.085 7.91401 320.426 7.29401C319.766 6.67401 319.436 5.90501 319.436 4.98401C319.436 4.06401 319.766 3.28401 320.426 2.64401C321.085 2.00501 321.875 1.68399 322.795 1.68399C323.675 1.68399 324.455 2.00501 325.136 2.64401C325.815 3.28401 326.155 4.06401 326.155 4.98401C326.155 5.90501 325.815 6.67401 325.136 7.29401C324.455 7.91401 323.675 8.224 322.795 8.224Z" fill="#231F20"/>
<path d="M352.794 22.2641C350.913 20.1441 348.693 19.0841 346.134 19.0841C345.054 19.0841 344.004 19.2741 342.984 19.6541C341.964 20.0351 341.065 20.6441 340.284 21.4841C339.504 22.3241 338.874 23.4041 338.395 24.7241C337.914 26.0441 337.674 27.6241 337.674 29.4641C337.674 31.3841 337.894 33.0141 338.334 34.3541C338.773 35.6951 339.363 36.7941 340.105 37.6541C340.844 38.5141 341.684 39.1441 342.624 39.5441C343.564 39.9441 344.514 40.1441 345.475 40.1441C348.475 40.1441 350.913 38.8451 352.794 36.2441V22.2641ZM352.794 1.08409H358.074V43.6841H353.634L352.975 40.5641H352.794C351.554 41.8451 350.304 42.7751 349.044 43.3541C347.784 43.9331 346.194 44.2241 344.274 44.2241C342.754 44.2241 341.283 43.9241 339.864 43.3241C338.443 42.7241 337.174 41.8241 336.054 40.6241C334.934 39.4241 334.034 37.9141 333.355 36.0941C332.674 34.2741 332.334 32.1241 332.334 29.6441C332.334 27.4451 332.624 25.4441 333.204 23.6441C333.783 21.8441 334.614 20.3051 335.694 19.0241C336.774 17.7441 338.094 16.7641 339.654 16.0841C341.214 15.4041 342.993 15.0641 344.994 15.0641C346.474 15.0641 347.884 15.2951 349.225 15.7541C350.564 16.2141 351.754 16.9041 352.794 17.8241V1.08409Z" fill="#231F20"/>
<path d="M384.774 26.4042C384.774 25.3642 384.643 24.3942 384.384 23.4942C384.124 22.5942 383.724 21.8042 383.184 21.1242C382.644 20.4442 381.954 19.9042 381.114 19.5042C380.274 19.1042 379.253 18.9042 378.054 18.9042C375.853 18.9042 374.064 19.6042 372.684 21.0042C371.304 22.4042 370.454 24.2442 370.134 26.5242L384.774 26.4042ZM390.234 30.1842H370.014V30.4242C370.014 33.5442 370.863 35.9442 372.564 37.6242C374.263 39.3042 376.574 40.1442 379.494 40.1442C381.013 40.1442 382.364 40.0242 383.544 39.7842C384.723 39.5442 386.013 39.1442 387.414 38.5842L388.494 42.4842C387.334 43.0042 385.963 43.4242 384.384 43.7442C382.803 44.0642 381.114 44.2242 379.314 44.2242C377.274 44.2242 375.363 43.9442 373.584 43.3842C371.803 42.8242 370.233 41.9542 368.874 40.7742C367.513 39.5942 366.444 38.0842 365.664 36.2442C364.884 34.4042 364.494 32.2042 364.494 29.6442C364.494 27.4452 364.824 25.4442 365.484 23.6442C366.144 21.8442 367.074 20.3142 368.274 19.0542C369.474 17.7942 370.923 16.8142 372.624 16.1142C374.324 15.4142 376.233 15.0642 378.354 15.0642C380.154 15.0642 381.783 15.3642 383.244 15.9642C384.704 16.5642 385.954 17.4042 386.994 18.4842C388.034 19.5642 388.834 20.8642 389.394 22.3842C389.954 23.9042 390.234 25.5842 390.234 27.4242V30.1842Z" fill="#231F20"/>
<path d="M396.354 43.684V15.484H400.314L401.214 21.124C401.894 19.324 403.014 17.864 404.574 16.744C406.134 15.624 407.934 15.064 409.974 15.064C411.014 15.064 411.874 15.144 412.554 15.304C413.234 15.464 413.853 15.664 414.414 15.904L413.394 20.524C412.914 20.284 412.383 20.084 411.804 19.924C411.224 19.765 410.534 19.684 409.734 19.684C408.574 19.684 407.503 19.885 406.524 20.284C405.543 20.684 404.684 21.284 403.944 22.084C403.204 22.885 402.625 23.874 402.204 25.054C401.784 26.234 401.574 27.584 401.574 29.104V43.684H396.354Z" fill="#231F20"/>
<path d="M419.334 15.484H424.614V43.684H419.334V15.484ZM421.974 8.224C421.054 8.224 420.264 7.91401 419.604 7.29401C418.944 6.67401 418.614 5.90501 418.614 4.98401C418.614 4.06401 418.944 3.28401 419.604 2.64401C420.264 2.00501 421.054 1.68399 421.974 1.68399C422.854 1.68399 423.634 2.00501 424.314 2.64401C424.994 3.28401 425.334 4.06401 425.334 4.98401C425.334 5.90501 424.994 6.67401 424.314 7.29401C423.634 7.91401 422.854 8.224 421.974 8.224Z" fill="#231F20"/>
</svg>
