<svg width="425" height="44" viewBox="0 0 425 44" fill="none" xmlns="http://www.w3.org/2000/svg">
<path d="M18.48 14.2799H26.459V42.8999H20.52L19.68 39.6599H19.44C19 40.1009 18.49 40.5509 17.91 41.0099C17.33 41.4699 16.65 41.8899 15.87 42.2699C15.09 42.6509 14.209 42.9599 13.23 43.1999C12.25 43.4399 11.16 43.5599 9.95901 43.5599C6.879 43.5599 4.45 42.6999 2.669 40.9799C0.888996 39.2609 0 36.7199 0 33.3599V14.2799H7.98V32.6999C7.98 34.4209 8.389 35.6609 9.20901 36.4199C10.029 37.1799 11.08 37.5599 12.36 37.5599C13.8 37.5599 15.03 37.2599 16.05 36.6599C17.07 36.0599 17.88 35.3609 18.48 34.5599V14.2799Z" fill="#231F20"/>
<path d="M33.8992 0.059997H41.7592V42.9H33.8992V0.059997Z" fill="#231F20"/>
<path d="M66.9586 14.2799H75.4186L65.2776 42.8999H56.0386L46.1976 14.2799H54.7186L58.9186 28.5599L60.6576 37.1999H60.8976L62.6386 28.5599L66.9586 14.2799Z" fill="#231F20"/>
<path d="M80.2182 14.28H88.1982V42.9H80.2182V14.28ZM84.2392 8.16C82.8782 8.16 81.8182 7.76999 81.0582 6.98999C80.2982 6.20999 79.9182 5.24101 79.9182 4.08001C79.9182 2.92101 80.2982 1.95001 81.0582 1.17001C81.8182 0.390013 82.8782 0 84.2392 0C85.5582 0 86.6092 0.390013 87.3882 1.17001C88.1682 1.95001 88.5582 2.92101 88.5582 4.08001C88.5582 5.24101 88.1782 6.20999 87.4182 6.98999C86.6582 7.76999 85.5982 8.16 84.2392 8.16Z" fill="#231F20"/>
<path d="M104.157 33.2999V42.8999H96.2368V0.059898H104.157V25.4999L113.758 14.2799H123.418L112.378 26.3399L123.958 42.8999H114.537L106.498 30.9599L104.157 33.2999Z" fill="#231F20"/>
<path d="M138.898 9.90033e-05C140.017 9.90033e-05 141.187 0.160098 142.408 0.480103C143.627 0.800103 144.717 1.2001 145.678 1.6801L144.598 5.3401C143.797 5.0201 143.038 4.7701 142.318 4.5901C141.598 4.4101 140.837 4.3201 140.038 4.3201C138.118 4.3201 136.748 4.86009 135.928 5.94009C135.108 7.02009 134.698 8.86009 134.698 11.4601V14.7001H143.278V18.6601H134.698V42.9001H129.478V18.6601H125.337V14.7001H129.478V9.7201C129.478 6.6001 130.288 4.2001 131.908 2.5201C133.528 0.840103 135.858 9.90033e-05 138.898 9.90033e-05Z" fill="#231F20"/>
<path d="M147.176 42.9V14.7H151.136L152.036 20.34C152.716 18.54 153.836 17.08 155.396 15.96C156.956 14.84 158.756 14.28 160.796 14.28C161.836 14.28 162.696 14.36 163.376 14.52C164.056 14.68 164.675 14.88 165.236 15.12L164.216 19.74C163.736 19.5 163.205 19.3 162.626 19.14C162.046 18.981 161.356 18.9 160.556 18.9C159.396 18.9 158.325 19.101 157.346 19.5C156.365 19.9 155.506 20.5 154.766 21.3C154.026 22.101 153.447 23.09 153.026 24.27C152.606 25.45 152.396 26.8 152.396 28.32V42.9H147.176Z" fill="#231F20"/>
<path d="M188.517 14.6998H193.796V42.8998H189.657L188.937 39.3598H188.697C187.656 40.5208 186.366 41.4898 184.827 42.2698C183.287 43.0498 181.496 43.4398 179.456 43.4398C176.537 43.4398 174.166 42.6108 172.346 40.9498C170.526 39.2908 169.617 36.7798 169.617 33.4198V14.6998H174.897V32.7598C174.897 33.9598 175.046 34.9798 175.346 35.8198C175.647 36.6598 176.046 37.3298 176.546 37.8298C177.046 38.3308 177.636 38.6908 178.317 38.9098C178.996 39.1308 179.736 39.2398 180.537 39.2398C182.136 39.2398 183.576 38.9008 184.857 38.2198C186.136 37.5398 187.356 36.5998 188.517 35.3998V14.6998Z" fill="#231F20"/>
<path d="M207.236 32.5802V42.9002H202.015V0.300213H207.236V26.8202L218.576 14.7002H225.116L213.536 26.5802L225.656 42.9002H219.416L210.055 29.7602L207.236 32.5802Z" fill="#231F20"/>
<path d="M245.395 18.6598H237.115V35.0398C237.115 36.4408 237.464 37.3798 238.165 37.8598C238.864 38.3398 239.774 38.5798 240.895 38.5798C241.694 38.5798 242.575 38.4898 243.535 38.3098C244.495 38.1298 245.334 37.9198 246.054 37.6798L246.895 41.6998C246.094 42.0208 245.074 42.2998 243.834 42.5398C242.594 42.7798 241.294 42.8998 239.935 42.8998C237.134 42.8998 235.094 42.2908 233.815 41.0698C232.534 39.8498 231.895 38.0798 231.895 35.7598V18.6598H227.695V14.6998H231.895V5.69979H237.115V14.6998H245.395V18.6598Z" fill="#231F20"/>
<path d="M255.294 31.6202C255.294 34.1402 256.124 36.0502 257.784 37.3502C259.443 38.6502 261.654 39.3002 264.414 39.3002C265.254 39.3002 266.124 39.2012 267.024 39.0002C267.924 38.8002 268.794 38.5112 269.634 38.1302C270.474 37.7502 271.244 37.3002 271.944 36.7802C272.644 36.2612 273.234 35.6802 273.714 35.0402L261.954 23.1002C261.073 23.5402 260.233 24.0402 259.434 24.6002C258.634 25.1612 257.924 25.7902 257.304 26.4902C256.684 27.1902 256.194 27.9702 255.834 28.8302C255.474 29.6902 255.294 30.6202 255.294 31.6202ZM250.134 31.7402C250.134 30.2612 250.384 28.9202 250.884 27.7202C251.384 26.5202 252.054 25.4402 252.894 24.4802C253.734 23.5202 254.714 22.6802 255.834 21.9602C256.953 21.2402 258.153 20.6202 259.434 20.1002C258.394 18.9402 257.484 17.6102 256.704 16.1102C255.924 14.6102 255.534 12.9602 255.534 11.1602C255.534 9.8402 255.794 8.66121 256.315 7.62021C256.833 6.58021 257.544 5.69021 258.444 4.95021C259.344 4.21021 260.403 3.65021 261.624 3.27021C262.844 2.89021 264.134 2.70021 265.494 2.70021C266.854 2.70021 268.124 2.90021 269.304 3.30021C270.483 3.70021 271.503 4.27021 272.364 5.01021C273.224 5.75021 273.894 6.64021 274.374 7.68021C274.854 8.72121 275.094 9.8602 275.094 11.1002C275.094 13.2212 274.554 14.9802 273.474 16.3802C272.394 17.7812 270.974 18.9202 269.214 19.8002L266.754 16.8602C267.794 16.3002 268.623 15.5602 269.244 14.6402C269.863 13.7202 270.174 12.6402 270.174 11.4002C270.174 10.0002 269.724 8.86021 268.824 7.98021C267.924 7.10021 266.773 6.66021 265.374 6.66021C263.854 6.66021 262.674 7.08022 261.834 7.92022C260.994 8.76022 260.574 9.8602 260.574 11.2202C260.574 13.0202 261.073 14.6702 262.074 16.1702C263.073 17.6702 264.514 19.3602 266.394 21.2402L276.474 31.4402C277.153 30.4002 277.794 29.1902 278.394 27.8102C278.994 26.4302 279.514 25.1002 279.954 23.8202L284.274 25.5602C283.634 27.3602 282.914 29.0402 282.114 30.6002C281.314 32.1602 280.514 33.5402 279.714 34.7402L287.815 42.9002H281.334L276.774 38.2202C276.213 38.8602 275.523 39.4902 274.704 40.1102C273.884 40.7302 272.934 41.2802 271.854 41.7602C270.774 42.2402 269.564 42.6302 268.224 42.9302C266.884 43.2302 265.413 43.3802 263.815 43.3802C261.733 43.3802 259.854 43.0892 258.174 42.5102C256.494 41.9312 255.054 41.1202 253.854 40.0802C252.654 39.0402 251.733 37.8102 251.094 36.3902C250.454 34.9712 250.134 33.4202 250.134 31.7402Z" fill="#231F20"/>
<path d="M305.274 39.36C306.553 39.36 307.674 39.22 308.634 38.94C309.594 38.661 310.534 38.3 311.454 37.86L312.594 41.82C310.434 42.9 307.854 43.44 304.854 43.44C302.814 43.44 300.904 43.14 299.124 42.54C297.343 41.94 295.784 41.031 294.444 39.81C293.103 38.59 292.053 37.07 291.295 35.25C290.534 33.43 290.154 31.3 290.154 28.86C290.154 26.62 290.514 24.6 291.234 22.8C291.954 21 292.954 19.47 294.234 18.21C295.513 16.95 297.054 15.981 298.854 15.3C300.654 14.62 302.634 14.28 304.795 14.28C306.034 14.28 307.244 14.37 308.424 14.55C309.603 14.73 310.954 15.16 312.474 15.84L311.274 19.86C309.434 18.82 307.454 18.3 305.334 18.3C302.414 18.3 300.054 19.211 298.254 21.03C296.454 22.851 295.554 25.401 295.554 28.68C295.554 30.72 295.834 32.421 296.394 33.78C296.954 35.14 297.693 36.231 298.614 37.05C299.534 37.87 300.574 38.46 301.734 38.82C302.894 39.18 304.074 39.36 305.274 39.36Z" fill="#231F20"/>
<path d="M319.253 14.7H324.533V42.9H319.253V14.7ZM321.893 7.44C320.973 7.44 320.183 7.13001 319.524 6.51001C318.864 5.89001 318.534 5.12101 318.534 4.20001C318.534 3.28001 318.864 2.50001 319.524 1.86001C320.183 1.22101 320.973 0.899993 321.893 0.899993C322.773 0.899993 323.553 1.22101 324.234 1.86001C324.913 2.50001 325.253 3.28001 325.253 4.20001C325.253 5.12101 324.913 5.89001 324.234 6.51001C323.553 7.13001 322.773 7.44 321.893 7.44Z" fill="#231F20"/>
<path d="M351.892 21.4801C350.011 19.3601 347.791 18.3001 345.232 18.3001C344.152 18.3001 343.102 18.4901 342.082 18.8701C341.062 19.2511 340.163 19.8601 339.382 20.7001C338.602 21.5401 337.972 22.6201 337.493 23.9401C337.012 25.2601 336.772 26.8401 336.772 28.6801C336.772 30.6001 336.992 32.2301 337.432 33.5701C337.871 34.9111 338.461 36.0101 339.203 36.8701C339.942 37.7301 340.782 38.3601 341.722 38.7601C342.662 39.1601 343.612 39.3601 344.573 39.3601C347.573 39.3601 350.011 38.0611 351.892 35.4601V21.4801ZM351.892 0.300093H357.172V42.9001H352.732L352.073 39.7801H351.892C350.652 41.0611 349.402 41.9911 348.142 42.5701C346.882 43.1491 345.292 43.4401 343.372 43.4401C341.852 43.4401 340.381 43.1401 338.962 42.5401C337.541 41.9401 336.272 41.0401 335.152 39.8401C334.032 38.6401 333.132 37.1301 332.453 35.3101C331.772 33.4901 331.432 31.3401 331.432 28.8601C331.432 26.6611 331.722 24.6601 332.302 22.8601C332.881 21.0601 333.712 19.5211 334.792 18.2401C335.872 16.9601 337.192 15.9801 338.752 15.3001C340.312 14.6201 342.091 14.2801 344.092 14.2801C345.572 14.2801 346.982 14.5111 348.323 14.9701C349.662 15.4301 350.852 16.1201 351.892 17.0401V0.300093Z" fill="#231F20"/>
<path d="M383.872 25.6202C383.872 24.5802 383.741 23.6102 383.482 22.7102C383.222 21.8102 382.822 21.0202 382.282 20.3402C381.742 19.6602 381.052 19.1202 380.212 18.7202C379.372 18.3202 378.351 18.1202 377.152 18.1202C374.951 18.1202 373.162 18.8202 371.782 20.2202C370.402 21.6202 369.552 23.4602 369.232 25.7402L383.872 25.6202ZM389.332 29.4002H369.112V29.6402C369.112 32.7602 369.961 35.1602 371.662 36.8402C373.361 38.5202 375.672 39.3602 378.592 39.3602C380.111 39.3602 381.462 39.2402 382.642 39.0002C383.821 38.7602 385.111 38.3602 386.512 37.8002L387.592 41.7002C386.432 42.2202 385.061 42.6402 383.482 42.9602C381.901 43.2802 380.212 43.4402 378.412 43.4402C376.372 43.4402 374.461 43.1602 372.682 42.6002C370.901 42.0402 369.331 41.1702 367.972 39.9902C366.611 38.8102 365.542 37.3002 364.762 35.4602C363.982 33.6202 363.592 31.4202 363.592 28.8602C363.592 26.6612 363.922 24.6602 364.582 22.8602C365.242 21.0602 366.172 19.5302 367.372 18.2702C368.572 17.0102 370.021 16.0302 371.722 15.3302C373.422 14.6302 375.331 14.2802 377.452 14.2802C379.252 14.2802 380.881 14.5802 382.342 15.1802C383.802 15.7802 385.052 16.6202 386.092 17.7002C387.132 18.7802 387.932 20.0802 388.492 21.6002C389.052 23.1202 389.332 24.8002 389.332 26.6402V29.4002Z" fill="#231F20"/>
<path d="M395.452 42.9V14.7H399.412L400.312 20.34C400.992 18.54 402.112 17.08 403.672 15.96C405.232 14.84 407.032 14.28 409.072 14.28C410.112 14.28 410.972 14.36 411.652 14.52C412.332 14.68 412.951 14.88 413.512 15.12L412.492 19.74C412.012 19.5 411.481 19.3 410.902 19.14C410.322 18.981 409.632 18.9 408.832 18.9C407.672 18.9 406.601 19.101 405.622 19.5C404.641 19.9 403.782 20.5 403.042 21.3C402.302 22.101 401.723 23.09 401.302 24.27C400.882 25.45 400.672 26.8 400.672 28.32V42.9H395.452Z" fill="#231F20"/>
<path d="M418.432 14.7H423.712V42.9H418.432V14.7ZM421.072 7.44C420.152 7.44 419.362 7.13001 418.702 6.51001C418.042 5.89001 417.712 5.12101 417.712 4.20001C417.712 3.28001 418.042 2.50001 418.702 1.86001C419.362 1.22101 420.152 0.899993 421.072 0.899993C421.952 0.899993 422.732 1.22101 423.412 1.86001C424.092 2.50001 424.432 3.28001 424.432 4.20001C424.432 5.12101 424.092 5.89001 423.412 6.51001C422.732 7.13001 421.952 7.44 421.072 7.44Z" fill="#231F20"/>
</svg>
