<svg width="341" height="320" viewBox="0 0 341 320" fill="none" xmlns="http://www.w3.org/2000/svg">
<path fill-rule="evenodd" clip-rule="evenodd" d="M209.443 1.02176C208.14 2.07776 205.897 2.14476 205.208 3.83676C204.153 -0.675242 207.383 -0.622243 209.443 1.02176Z" fill="#231F20"/>
<path fill-rule="evenodd" clip-rule="evenodd" d="M217.533 6.25695C219.097 13.0319 224.611 7.11795 217.533 6.25695V6.25695Z" fill="#231F20"/>
<path fill-rule="evenodd" clip-rule="evenodd" d="M103.56 17.1211C104.637 10.9351 110.576 16.5811 103.56 17.1211V17.1211Z" fill="#231F20"/>
<path fill-rule="evenodd" clip-rule="evenodd" d="M63.908 38.0503C63.674 40.8933 61.708 41.9233 59.285 42.4773C59.269 39.3873 62.204 39.3533 63.908 38.0503Z" fill="#231F20"/>
<path fill-rule="evenodd" clip-rule="evenodd" d="M66.6003 38.8523C66.7183 41.3653 66.4953 44.4643 64.6783 44.8953C64.3473 44.9763 61.6893 43.8063 61.5953 43.2853C61.3453 41.9233 65.3293 39.8513 66.6003 38.8523Z" fill="#231F20"/>
<path fill-rule="evenodd" clip-rule="evenodd" d="M56.9754 52.5338C53.7604 53.9158 56.2754 50.3218 52.7404 50.9328C53.0664 48.4778 56.6494 47.8478 54.6624 45.3058C59.8024 44.1888 55.3714 49.8068 56.9754 52.5338Z" fill="#231F20"/>
<path fill-rule="evenodd" clip-rule="evenodd" d="M255.257 48.115C258.016 49.266 258.388 52.669 259.107 54.957C256.643 53.775 253.257 51.608 255.257 48.115Z" fill="#231F20"/>
<path fill-rule="evenodd" clip-rule="evenodd" d="M246.79 50.5272C248.78 49.5452 251.267 53.6712 252.955 54.5552C254.038 55.1322 254.546 54.3212 254.872 54.9572C256.479 58.0702 254.067 62.4272 254.487 65.0162C250.92 63.2352 247.754 57.8902 245.247 55.7622C244.814 55.3962 240.808 53.4262 242.17 51.3352C244.165 48.2722 246.529 54.9262 246.79 54.9572C247.945 55.0952 247.277 51.8552 246.79 50.5272Z" fill="#231F20"/>
<path fill-rule="evenodd" clip-rule="evenodd" d="M46.578 53.7469C50.315 51.7539 52.03 58.0959 47.356 56.5699C46.414 56.2659 44.125 55.0609 46.578 53.7469Z" fill="#231F20"/>
<path fill-rule="evenodd" clip-rule="evenodd" d="M276.816 56.1703C278.981 55.9113 280.647 57.8843 279.899 59.3903C278.079 59.1393 277.376 57.7323 276.816 56.1703Z" fill="#231F20"/>
<path fill-rule="evenodd" clip-rule="evenodd" d="M34.2609 64.6168C39.0319 61.8928 34.3009 70.0518 33.1029 66.6318C32.7079 65.5038 32.8309 65.4278 34.2609 64.6168Z" fill="#231F20"/>
<path fill-rule="evenodd" clip-rule="evenodd" d="M222.527 71.8615C223.946 79.7055 230.041 71.7915 222.527 71.8615V71.8615Z" fill="#231F20"/>
<path fill-rule="evenodd" clip-rule="evenodd" d="M318.011 90.7838C315.604 90.7218 315.803 88.7548 313.782 89.1708C314.094 86.4128 318.784 87.6848 318.011 90.7838Z" fill="#231F20"/>
<path fill-rule="evenodd" clip-rule="evenodd" d="M10.001 112.917C10.378 103.964 16.341 111.408 10.001 112.917V112.917Z" fill="#231F20"/>
<path fill-rule="evenodd" clip-rule="evenodd" d="M335.343 127.412C334.234 126.824 333.66 125.672 332.26 125.394C333.434 121.988 338.369 125.205 335.343 127.412Z" fill="#231F20"/>
<path fill-rule="evenodd" clip-rule="evenodd" d="M15.3963 217.577H16.5483C16.6373 219.257 18.4523 220.721 17.3183 222.407C15.5493 221.976 15.3913 219.86 15.3963 217.577Z" fill="#231F20"/>
<path fill-rule="evenodd" clip-rule="evenodd" d="M313.781 237.296C312.61 239.536 312.422 241.214 313.781 243.336C310.343 244.459 309.721 237.057 313.781 237.296Z" fill="#231F20"/>
<path fill-rule="evenodd" clip-rule="evenodd" d="M298.772 252.991C300.363 253.613 299.736 256.54 301.852 256.616C300.783 260.773 296.914 256.45 298.772 252.991Z" fill="#231F20"/>
<path fill-rule="evenodd" clip-rule="evenodd" d="M277.589 285.198C271.432 283.608 278.058 276.648 277.589 285.198V285.198Z" fill="#231F20"/>
<path fill-rule="evenodd" clip-rule="evenodd" d="M274.124 283.985C273.55 286.211 272.347 287.779 269.507 287.607V290.43C268.478 290.425 267.302 290.582 266.809 290.028C267.07 288.429 267.784 287.292 267.574 285.198C269.03 284.894 268.416 286.738 269.507 286.802C269.846 283.788 271.569 284.692 274.124 283.985Z" fill="#231F20"/>
<path fill-rule="evenodd" clip-rule="evenodd" d="M65.4454 286C67.2114 286.172 68.4524 286.881 68.5284 288.82C66.4764 289.062 64.4604 287.638 65.4454 286Z" fill="#231F20"/>
<path fill-rule="evenodd" clip-rule="evenodd" d="M260.647 289.22C260.876 289.589 263.606 295.088 262.575 296.071C259.411 299.057 259.39 291.691 260.647 289.22Z" fill="#231F20"/>
<path fill-rule="evenodd" clip-rule="evenodd" d="M71.9983 293.248C73.7103 291.905 75.6593 292.989 75.4523 292.843C77.5823 294.351 72.2513 299.057 71.2203 295.66C70.9883 294.892 71.0913 293.952 71.9983 293.248Z" fill="#231F20"/>
<path fill-rule="evenodd" clip-rule="evenodd" d="M242.94 294.452C245.115 292.721 245.358 298.179 244.092 298.879C242.423 299.811 241.774 295.384 242.94 294.452Z" fill="#231F20"/>
<path fill-rule="evenodd" clip-rule="evenodd" d="M252.559 298.48C252.648 298.221 256.49 294.424 256.802 294.452C258.288 294.562 259.632 297.461 259.107 298.48C258.864 298.953 253.719 299.693 252.559 298.48Z" fill="#231F20"/>
<path fill-rule="evenodd" clip-rule="evenodd" d="M187.918 300.084C188.736 302.386 193.628 300.551 192.543 296.473C191.071 296.597 187.713 299.51 187.918 300.084ZM175.598 296.473C171.649 303.304 178.872 302.727 175.598 296.473V296.473ZM110.92 295.254C109.563 295.057 108.411 294.658 106.68 294.857C106.984 297.939 110.694 299.338 110.92 295.254ZM93.5901 290.028C95.5551 290.239 96.3421 291.528 95.5181 293.65C100.27 292.262 95.7441 284.176 93.5901 290.028ZM97.4431 285.198C99.1201 287.796 104.216 281.136 99.7501 281.573C97.6071 281.778 96.1881 283.259 97.4431 285.198ZM72.4151 280.368C72.2411 277.331 69.6241 276.844 67.0231 276.34C68.0141 278.339 70.2161 280.965 72.4151 280.368ZM86.6571 275.538C86.0011 276.504 87.1931 280.011 89.3521 279.56C90.6151 276.785 87.6161 274.125 86.6571 275.538ZM50.0831 274.325C49.5691 272.051 48.5381 270.312 45.8481 270.303C46.0771 272.881 47.1971 274.525 50.0831 274.325ZM53.5511 274.325C53.6691 271.378 52.2671 267.891 50.0831 268.693C52.0591 269.968 49.8411 273.577 53.5511 274.325ZM49.3131 262.259C46.9631 262.693 46.1281 261.55 44.6881 261.046C44.1151 265.369 49.2541 265.98 49.3131 262.259ZM57.3951 252.991C58.7201 254.165 58.6661 256.765 61.2451 256.616C61.3531 254.136 59.3101 252.079 57.3951 252.991ZM44.3031 259.836C42.8601 258.212 44.3331 256.813 44.3031 255.814C44.2251 252.929 39.7671 253.526 38.9181 251.387C39.1801 255.808 41.9611 257.607 44.3031 259.836ZM268.005 255.006C265.84 248.215 273.015 251.888 268.005 255.006V255.006ZM31.9861 241.317C32.5891 243.89 35.0441 245.748 35.4511 247.362C35.9251 249.225 34.9311 250.582 37.3811 250.573C38.7921 248.935 36.7891 248.243 36.2231 246.951C34.5891 243.24 33.1571 238.176 30.8341 235.685C31.2451 238.199 31.4451 239.035 31.9861 241.317ZM29.2941 236.896C30.5431 233.631 30.6961 229.341 26.9811 228.444C27.3521 232.142 27.1751 234.608 29.2941 236.896ZM313.046 212.339C310.031 220.83 318.159 216.907 313.046 212.339V212.339ZM25.8261 221.196C23.5051 216.949 25.6291 212.893 21.9791 210.321C20.5651 215.196 24.3181 218.05 25.8261 221.196ZM321.519 205.494C320.522 202.91 321.047 198.739 319.209 197.044C317.957 200.74 320.205 203.253 321.519 205.494ZM320.749 157.598C321.885 161.032 326.095 154.626 321.904 154.775C318.495 154.905 320.396 156.537 320.749 157.598ZM319.981 127.412C319.246 126.405 318.371 123.953 316.514 125.394C317.413 128.893 320.326 127.159 322.289 128.214C323.174 125.583 322.081 121.783 319.602 121.372C320.708 122.692 321.292 125.721 319.981 127.412ZM44.3031 113.32C44.9361 112.107 42.5801 111.321 42.7681 111.307C38.6821 111.552 42.7581 116.309 44.3031 113.32ZM47.0031 113.32C49.7521 113.514 49.6771 110.753 49.6981 108.093C47.7411 107.246 46.6021 110.39 47.0031 113.32ZM311.118 102.455C311.046 100.119 309.982 98.8113 308.811 97.6263C307.285 99.1483 308.017 103.319 311.118 102.455ZM85.1181 81.5213C84.4581 80.7193 84.3151 79.5063 83.9631 79.1063C83.1011 78.1263 80.4871 82.1683 81.6501 83.5393C82.6761 84.7273 86.6201 82.2243 86.6571 85.1493C87.7861 82.4833 86.3481 83.0273 85.1181 81.5213ZM269.154 72.6603C268.478 72.3033 268.034 71.6953 267.232 71.4623C268.295 75.0443 270.212 77.7323 273.392 79.1063C272.019 76.9643 272.851 76.9643 273.007 73.8793C270.201 74.2113 271.012 72.7983 271.079 70.6543H269.924C269.983 71.6533 269.728 72.3203 269.154 72.6603ZM261.072 65.4193C260.149 64.4953 258.143 64.3043 257.995 66.2293C260.149 66.7953 260.356 69.3873 260.682 71.8613C262.574 69.6693 263.832 71.6813 266.467 71.8613C266.825 68.2613 265.202 66.7423 263.002 65.8303C262.238 66.1003 263.091 68.0703 262.224 68.2363C260.919 66.3792 263.307 65.5143 262.615 63.0073H261.457C261.234 63.7163 261.923 65.3653 261.072 65.4193ZM192.543 48.5172C192.22 45.3682 189.474 44.7462 187.151 43.6902C185.32 47.5552 188.491 49.4662 192.543 48.5172ZM199.465 42.4773C201.697 45.8833 205.105 38.1403 201.395 38.8523C201.064 38.9203 198.466 40.9553 199.465 42.4773ZM140.95 39.2693C141.297 37.2143 142.654 36.2063 143.259 34.4283C139.146 33.6033 139.668 37.1943 140.95 39.2693ZM163.661 34.0222C163.142 34.8582 167.82 35.8243 168.671 35.2353C168.431 33.7493 164.787 31.9392 163.661 34.0222ZM289.559 244.94V244.537C288.17 245.365 287.572 248.141 288.021 250.573C288.353 252.408 290.498 253.855 288.412 256.616C288.307 256.751 287.305 256.473 287.251 256.616C286.751 258.046 287.666 259.101 284.941 259.836C283.779 257.911 285.106 253.832 285.332 254.606C285.082 253.731 283.151 252.918 283.022 252.991C281.229 254.018 281.057 267.528 277.242 261.046C276.135 263.362 277.336 266.332 276.472 268.288C274.964 267.579 275.457 264.795 275.319 262.659C275.414 263.666 273.063 263.267 272.627 263.858C272.315 264.28 272.632 266.625 272.237 267.486C271.639 268.775 270.296 268.277 269.924 269.495C269.746 270.103 270.131 270.911 269.924 271.516C269.367 273.199 268.153 274.241 269.545 276.34C266.658 277.393 266.343 272.504 263.77 271.919C264.763 274.216 264.106 272.625 263.002 274.325C261.683 276.346 262.434 280.759 258.38 279.56C258.74 282.335 258.854 281.469 256.452 282.78C256.242 282.896 255.782 283.976 255.682 283.985C254.705 284.081 254.619 282.825 253.754 283.183C253.014 283.489 250.316 286.341 250.677 286.402C251.676 286.583 250.036 286.411 250.295 286.402C246.348 286.56 247.134 290.118 243.365 289.22C243.613 291.882 244.587 292.656 242.205 293.65C241.645 291.151 241.733 287.973 240.282 286.402C239.731 286.903 239.555 287.787 239.507 288.82C238.306 289.279 238.576 288.19 237.975 288.018C237.087 288.834 237.835 291.356 237.582 292.842C236.295 292.848 235.024 292.842 235.277 291.232C233.172 292.651 231.804 294.849 232.192 298.879C230.908 300.405 230.757 297.571 230.275 297.269C229.947 297.07 228.555 297.571 228.342 297.269C227.144 295.53 228.757 289.991 225.262 292.842C224.719 293.29 225.914 293.917 225.653 295.254C225.575 295.645 224.274 296.391 223.725 298.077C222.403 302.161 223.814 303.92 219.102 302.502C218.475 303.462 218.831 305.435 216.795 304.922C216.908 302.721 216.063 298.418 218.717 300.084C217.264 296.13 220.976 290.712 218.717 290.43C217.191 290.239 217.054 292.656 216.41 293.65C216.332 293.774 215.288 293.515 215.255 293.65C214.243 297.202 216.176 304.134 215.255 306.929C213.427 305.139 212.759 302.688 209.865 304.922C210.032 302.071 206.543 302.679 206.015 304.112C205.515 305.457 211.839 311.373 206.4 310.957L205.383 309.552L203.705 309.749C202.332 305.364 198.555 304.039 193.693 306.127L192.926 305.93L192.15 305.724C190.766 305.612 189.498 305.626 189.843 307.332C188.354 307.681 189.213 305.572 187.536 306.127C186.995 308.578 184.682 309.003 186.378 311.759C185.196 312.054 185.635 310.661 184.458 310.957C184.52 312.099 184.125 313.718 185.226 313.774C184.003 314.286 181.632 310.273 179.83 312.161C177.962 314.123 182.894 314.148 182.143 316.189C180.234 314.106 178.175 317.458 176.368 316.589C178.215 315.829 176.85 311.187 174.831 310.957C174.815 310.957 173.555 311.897 173.286 311.759C171.482 310.841 170.16 309.538 170.591 306.929C170.65 306.58 171.746 305.708 171.746 305.325C171.746 304.661 170.814 304.039 170.591 302.901C169.737 298.632 172.155 294.241 167.513 294.857C170.356 293.138 165.489 287.649 162.509 290.827L160.988 290.63L159.817 291.632C157.582 292.842 158.805 296.18 156.349 297.678C157.405 298.713 160.065 299.555 161.354 298.077L163.037 298.277L164.437 297.269C165.37 297.9 166.076 298.77 167.893 298.48C168.843 299.727 167.01 301.97 167.123 302.901C167.276 304.106 169.148 305.1 169.441 306.529C170.074 309.653 169.099 311.798 167.513 314.579C165.731 313.808 166.786 310.746 165.591 310.155C162.162 308.441 162.019 314.725 158.657 314.579V310.554C156.511 309.327 156.285 313.307 155.189 314.177C153.662 315.395 151.269 313.842 150.957 316.189C150.841 317.033 152.486 317.816 151.729 319.012C150.795 318.84 150.889 319.741 149.802 319.412C149.92 315.573 149.11 309.53 145.567 309.749L145.061 308.339L143.647 308.536C143.787 305.567 142.333 308.176 141.329 306.929C139.393 304.517 143.553 301.908 143.647 299.282C143.666 298.53 141.528 293.788 140.95 293.65C139.216 293.247 138.79 295.555 137.102 296.071C137.135 295.494 137.162 294.919 136.712 294.857C133.39 296.726 138.43 298.843 140.565 298.879C138.007 302.22 138.494 304.441 139.41 309.341L138.004 309.141L136.712 309.749C132.738 308.204 130.727 311.311 130.56 314.984C129.704 313.388 130.442 308.266 125.55 309.749C125.106 309.276 125.114 308.331 125.159 307.332C122.699 307.948 124.906 309.504 122.852 309.749C118.491 310.264 115.408 305.885 117.077 311.759C114.775 312.156 116.509 309.409 116.305 308.536C115.799 306.408 114.197 302.935 112.07 304.922C111.542 305.415 111.752 306.529 111.302 306.929C111.351 306.887 109.35 306.997 109.369 306.929C108.605 308.626 110.417 311.551 110.142 313.774C109.978 315.162 109.278 315.514 110.142 317.396C108.295 317.785 108.85 315.792 107.838 314.579C106.736 313.259 104.69 312.902 104.755 311.362C104.854 309.003 108.99 309.285 109.369 306.127C109.119 305.128 108.204 306.724 107.838 306.929C107.216 304.756 103.646 305.674 104.37 302.099C103.46 301.201 103.969 303.146 103.215 303.31C102.956 303.36 102.001 302.319 101.672 302.502C100.795 302.983 101.845 303.771 101.29 304.517C100.735 305.257 97.8391 305.33 97.8251 305.325C97.1041 304.953 97.9331 303.208 97.8251 302.901C97.2541 301.291 96.2021 304.278 96.2821 301.291C96.3281 299.817 98.7431 299.653 97.8251 298.077C95.5391 297.385 92.2041 297.782 91.2831 295.66C89.5731 296.253 91.6221 296.988 91.6681 298.077C91.5041 299.516 89.9261 299.476 88.9701 300.084C89.4121 300.973 89.9581 301.728 89.7351 303.31C88.6151 302.885 87.7561 302.167 85.8901 302.502C85.0661 305.646 88.8761 303.943 89.3521 305.724C86.5091 305.001 85.7581 309.409 82.8101 308.134C82.8241 308.142 82.4871 306.6 82.4251 306.529C82.3441 306.436 81.2841 306.152 81.2681 306.127C81.0151 305.634 81.5741 304.556 81.2681 304.112C80.5811 303.121 80.0021 303.892 79.3451 303.31C78.7421 302.789 78.7771 299.392 78.1901 301.291C78.6021 299.955 82.2371 301.384 83.1901 300.886C83.8521 300.557 85.0881 296.366 87.0451 296.873C84.9081 298.221 82.7671 295.344 80.8831 295.254C80.3631 295.232 80.1371 296.859 80.1181 296.873C78.6881 297.692 76.6071 295.502 76.6481 295.66C76.2381 293.985 81.5231 291.131 80.8831 294.857C82.1481 293.439 81.8251 291.48 81.2681 290.43C80.8771 289.69 76.6401 287.616 76.6481 287.607C75.7591 287.95 75.0511 290.652 75.1081 291.632C75.1911 293.138 76.2631 292.603 73.5731 293.65C73.5331 289.389 69.3381 289.484 66.2561 288.412V285.6C66.2071 284.829 64.9691 286.076 63.9431 285.6C66.4661 281.08 60.6131 276.895 61.6361 282.78C59.5441 282.552 58.7071 281.013 57.0161 280.368C55.3121 280.984 57.5541 281.93 57.0161 283.183C56.4991 284.387 53.2411 285.37 52.7761 285.198C51.7601 284.821 52.8111 282.825 51.2361 281.573C50.0401 280.627 48.0481 281.122 47.3861 280.368C47.0521 279.985 47.2831 278.153 47.0031 277.545C45.9401 275.237 44.2541 275.687 42.3831 275.538C42.7121 268.755 34.5171 273.326 34.2991 267.083L35.6471 266.276L35.4511 264.666C36.6331 264.021 37.6991 263.261 38.1481 261.857C38.8191 263.7 40.3701 264.629 41.6111 265.876C41.9661 263.013 37.7391 259.546 35.4511 259.436L34.6191 258.164L33.1411 258.232C33.2671 254.333 30.5511 253.424 28.9031 251.387C30.7291 254.801 22.1401 259.436 23.5191 250.984C22.8971 249.65 22.0781 251.04 21.2061 250.176C21.9681 247.697 20.1101 244.118 22.7431 243.735C23.3111 243.653 25.9391 249.326 27.3691 246.951C28.1931 245.584 24.3001 242.246 24.6741 242.927C24.2651 242.167 24.7841 239.933 23.5191 239.705L23.7101 238.705L22.7431 238.5C22.7081 235.719 20.8451 234.855 19.6741 233.273C18.5781 233.513 19.7551 235.252 19.2781 235.685C15.6951 238.95 10.6071 228.044 12.3541 225.224C13.9881 225.621 12.7961 226.876 13.8941 227.231C13.7921 227.202 16.6611 226.538 16.9771 226.023C18.5731 223.332 15.7541 217.948 12.3541 221.196C12.1601 216.729 16.3011 219.001 16.5831 218.776C18.6461 217.208 16.5921 214.391 17.3591 211.534C15.4611 211.514 17.7521 213.4 16.5831 213.949C15.0301 213.023 14.7901 210.72 14.6611 208.314C15.8461 208.013 15.4021 209.42 16.5831 209.122C16.4971 208.314 17.5631 202.733 14.6611 204.692C15.6391 202.094 13.0241 201.916 12.3541 200.664C10.9891 198.136 12.0471 195.409 10.8111 192.215C8.11912 195.491 12.1521 198.373 11.9641 200.664C11.7801 203.006 8.74912 204.129 10.0411 207.109C11.4981 207.419 11.8801 206.617 13.1191 206.707C12.7681 210.616 14.8171 212.009 13.8941 215.564C12.6041 215.291 12.7771 213.507 11.5781 213.144C11.4521 215.584 8.92411 217.81 7.34611 216.774C5.70411 215.68 7.85811 211.787 7.34611 209.918C7.13611 209.167 3.33012 207.807 4.26612 205.494C5.23612 203.096 7.15212 205.868 8.11912 207.911C8.66812 206.048 8.21911 205.553 7.34611 204.692C5.55611 202.904 2.25011 203.608 3.10911 198.258C3.58011 195.305 2.04511 195.153 1.95611 191.01C1.92411 189.687 3.55011 190.18 3.10911 187.782C2.94711 186.878 1.48311 186.974 1.18911 185.775C0.624113 183.535 1.82212 179.907 1.57112 177.323C1.49112 176.526 0.581118 175.98 0.416118 175.313C-0.619882 171.007 1.17312 165.099 1.57112 160.818C2.11512 154.879 2.21011 149.768 3.10911 143.911C3.48011 141.499 4.65711 140.075 5.03611 136.664C5.29211 134.375 6.97211 132.464 7.34611 130.626C7.60211 129.385 7.00712 127.955 7.72912 127.001C7.91712 126.756 9.65112 126.216 9.65612 126.199C10.0711 125.206 9.49712 123.849 9.65612 122.979C9.92812 121.493 11.1131 119.084 11.9641 117.753C12.2141 117.364 13.7301 117.567 13.8941 117.35C15.3151 115.464 13.4311 113.843 14.2761 111.713C14.5621 110.984 16.2791 110.978 16.5831 110.5C16.9791 109.897 16.2981 108.949 16.5831 108.093C16.5081 108.318 19.2271 103.306 19.2781 103.269C20.0161 102.607 20.7271 103.584 21.2061 102.858C21.5611 102.312 20.9771 101.181 21.2061 100.44C21.5371 99.3713 23.0641 99.6213 23.9041 98.4223C24.3001 97.8593 23.7391 96.6383 24.2891 96.0163C24.9911 95.2003 26.5311 95.5433 26.9811 94.8033C27.3821 94.1533 26.9271 92.8353 27.3691 92.3913C27.9311 91.8223 28.9491 92.4533 29.6761 91.9823C31.0271 91.1333 29.6061 90.5703 31.2161 88.7683C31.9971 87.8963 33.2081 88.1293 33.5291 87.5613C34.3441 86.0803 33.2381 84.7893 34.2991 83.9383C35.1221 83.2743 36.9321 83.9443 37.3811 83.5393C38.6411 82.3683 38.2101 79.2663 40.0761 79.1063C41.6911 78.4843 40.1351 81.1923 41.2261 81.1153C41.5161 78.6163 44.5641 79.3143 46.2331 77.4963C48.5111 75.0113 46.5321 70.2233 51.2361 70.6543C50.3261 66.7083 54.2781 67.8933 56.2431 66.6323C56.7921 66.2773 56.7391 64.8303 57.3951 64.2143C58.3591 63.3163 60.8761 63.3923 62.0211 62.5983C62.8901 61.9963 62.9841 60.5693 63.9431 59.7903C67.0441 57.2683 72.0251 58.2752 72.8001 54.9572C74.2761 54.7542 73.0561 57.3783 74.3401 57.3783C74.7661 55.6693 75.4121 54.2052 75.8831 52.5342C77.3481 52.4772 77.7351 53.5553 78.9631 53.7473C80.4381 51.8133 81.8841 49.8262 84.7331 49.3192C83.8471 50.0122 85.3281 55.8353 87.0451 52.9453C87.4871 52.2133 86.8241 50.8343 87.0451 49.7253C87.2961 48.4832 89.2581 45.2723 89.7351 44.8953C90.2761 44.4703 91.2991 45.2972 91.2831 45.3062C93.0621 45.0102 92.0101 43.7302 93.2051 43.6902C94.9151 43.6262 94.0641 45.5653 97.0501 44.8953C98.5011 44.5743 97.4241 44.0593 98.9831 42.8853C99.5911 42.4153 100.224 43.4962 100.523 43.2852C100.867 43.0322 102.472 40.2762 103.215 40.0652C103.341 40.0292 105.388 41.3123 105.143 41.2753C108.917 41.8193 109.429 37.1323 112.84 36.0433C114.635 43.2323 117.204 35.5083 119.387 33.2263C120.615 34.6613 119.166 36.7303 118.615 37.6533C119.646 36.5503 122.782 32.5763 124.005 35.6413C124.131 35.9563 123.318 37.0623 123.62 37.2483C126.29 38.8913 129.952 36.6883 128.622 33.2263C126.982 33.3783 127.922 36.2433 125.55 35.6413C125.046 32.7703 129.586 31.8583 131.704 30.4003C131.438 32.1393 130.097 36.2062 132.48 36.8452C135.519 37.6532 133.519 35.4463 133.247 34.4283C132.657 32.1673 135.229 29.8232 134.784 27.1862C139.003 26.9042 135.164 32.2073 137.102 32.8233C139.625 33.6203 139.711 28.4273 139.019 25.1763C140.303 24.4053 141.27 27.4313 142.102 27.5883C142.492 27.6593 143.243 26.0883 143.647 25.9783C145.026 25.6043 150.752 27.7322 150.957 23.9662C152.268 23.6652 151.592 25.4463 152.502 25.5673C153.458 25.7003 153.205 23.4713 153.652 23.1583C156.355 21.2673 160.073 25.1563 162.894 24.7653C164.146 24.5963 165.54 22.1282 167.893 23.5612C168.302 23.8032 168.722 25.9053 169.826 26.7803C170.744 27.5153 172.319 27.4173 172.909 27.9883C174.118 29.1842 174.091 32.3113 175.989 31.6103L175.789 33.5273L177.138 34.8303C174.327 37.8533 177.378 37.5493 178.678 40.4683C180.428 44.3693 187.748 38.9483 182.913 37.6533L183.939 36.4463L184.063 34.8303C185.086 32.3593 189.261 33.6853 187.536 30.0063C186.408 27.6083 183.18 27.9463 182.143 26.7803C181.298 25.8403 182.143 22.9303 180.991 22.3563C180.463 22.0803 177.022 21.5402 176.368 21.5482C175.579 21.5682 173.353 22.6043 172.909 22.3563C171.649 21.6583 171.482 17.1603 170.591 16.3133C170.071 15.8213 169.212 16.9863 168.283 16.7183C166.816 16.3053 166.412 13.2142 167.123 12.6942C165.5 12.6942 165.893 15.0803 164.052 15.1063C162.875 15.1233 163.077 13.1942 162.13 12.6942C161.166 12.1952 159.265 13.1192 157.889 12.6942C155.415 11.9422 156.037 9.75826 154.807 9.46826C153.315 11.0583 156.5 11.1742 155.582 13.4962C153.972 13.9092 153.937 11.4503 152.502 11.4783C151.517 11.5093 151.686 12.8512 150.957 12.6942C149.748 12.4232 149.611 11.0363 148.267 11.0843C147.578 11.1063 147.357 12.3452 146.339 12.6942C144.708 13.2422 142.522 11.4693 140.177 11.4783C137.299 11.5093 132.797 14.6893 133.247 8.26926L135.145 8.46326L135.945 6.65927H136.33C134.685 1.75327 148.186 1.17126 149.802 5.04926C150.623 7.01126 147.756 6.66525 149.419 9.06625C150.553 7.39425 150.515 3.41425 152.109 2.62625C153.878 1.76225 164.165 3.00027 166.743 4.23627C167.554 4.63327 168.138 6.18926 168.671 6.25726C169.543 6.35226 169.253 5.36426 170.206 5.04926C172.378 4.32926 178.947 6.46827 180.991 7.45627C181.89 7.89527 182.517 8.96726 183.678 9.46826C184.149 9.67926 185.339 9.01825 185.605 9.06625C186.72 9.29125 193.122 12.5053 193.693 13.0933C194.361 13.8053 195.023 15.1543 194.845 15.9133C198.431 13.5943 204.036 22.0463 204.863 19.1363C205.245 17.7743 201.91 16.3273 201.01 15.5113C200.639 15.1703 200.965 14.2502 200.625 13.9012C199.793 13.0712 197.793 13.4513 198.316 11.4783C201.167 12.2293 203.065 13.9972 206.785 14.7032L207.585 16.5193L209.483 16.3133C209.591 19.6913 211.464 21.2193 214.098 21.9563C214.38 18.5313 211.341 17.0393 212.175 14.3033L213.912 14.5123L214.098 12.6942H214.483C215.288 12.4632 213.931 11.1762 214.098 10.2762C216.9 11.6942 219.784 10.6562 221.035 13.4962C221.523 14.6132 221.509 20.8192 222.955 21.5482C224.32 22.2412 226.108 19.9383 226.035 19.9383C227.562 19.8963 231.659 24.0083 231.81 25.1763C232.017 26.7863 230.948 28.7343 229.503 29.1933C229.042 29.3423 227.941 28.9033 227.575 29.1933C226.579 30.0063 227.427 30.6653 226.805 31.6103C226.065 32.7333 223.687 33.2143 222.57 34.4283C221.275 35.8433 221.423 38.4503 219.102 38.0503C222.406 32.5083 214.946 32.7053 212.948 35.6413C211.647 35.5563 212.151 34.5043 210.641 34.4283C209.496 34.3773 210.288 35.5283 209.865 35.6413C209.117 35.8243 207.803 35.0363 206.785 35.6413C206.565 35.7623 204.133 40.5863 204.088 40.4683C205.156 43.3273 208.46 40.2993 210.641 41.6753C212.234 42.6833 210.248 44.1122 212.56 44.4952C213.715 43.7722 210.506 40.6423 213.33 40.4683C212.49 44.5663 217.347 42.7022 216.795 46.5052C213.548 45.0332 214.321 49.6632 211.79 50.9323C209.653 52.0073 205.078 49.3253 206.4 53.7473C208.597 53.9383 208.998 51.3542 211.023 52.5342C208.934 55.8632 209.408 58.3203 212.175 60.5923C215.137 63.0213 216.564 61.9173 215.255 68.2363C215.051 69.2243 214.458 68.4953 214.098 69.4493C213.815 70.1953 214.483 71.4763 214.483 71.4623C214.407 71.6953 213.322 71.9293 213.33 71.8613C213.217 73.1143 214.483 74.4563 214.483 75.4843C214.488 76.0753 213.459 76.1283 213.33 76.6913C212.891 78.6303 214.105 80.1563 215.255 81.5213C213.144 84.1443 208.441 84.0543 204.863 85.1493C204.99 86.0833 205.253 86.8833 206.015 87.1643C203.495 89.6443 200.211 89.7483 197.546 91.1863C196.455 91.7693 195.591 93.0443 194.463 93.6043C189.816 95.8643 184.34 93.3313 178.678 94.4003C178.102 94.5103 177.381 95.5913 176.753 95.6133C174.992 95.6813 171.466 94.8513 170.591 94.0033C169.934 93.3563 170.518 91.6643 169.441 91.1863C168.076 90.5643 163.419 93.3933 162.509 91.1863C161.325 88.3353 160.366 83.9503 158.657 81.9233C157.028 79.9923 156.107 81.2033 155.189 78.3073C154.823 77.1333 153.132 74.8813 151.729 74.2763C150.197 73.6203 143.728 73.4713 141.329 73.4713C135.985 73.4632 128.974 74.1473 124.777 75.4843C119.277 77.2463 112.132 77.9833 106.68 79.9173C105.328 80.3893 103.85 80.9923 102.448 81.5213C100.496 82.2723 98.8101 83.9503 97.4431 84.3443C96.7621 84.5353 96.1231 83.6513 95.5181 83.9383C95.0731 84.1503 94.6671 85.6553 93.9801 85.9453C93.5931 86.1113 92.7661 85.7033 92.4351 85.9453C91.9211 86.3283 92.1121 87.1393 91.6681 87.5613C89.3661 89.7003 85.4221 90.0353 82.8101 91.9823C76.4351 96.7563 70.5821 100.846 65.4881 106.883C64.2171 108.374 64.0881 109.298 62.4061 110.5C59.8271 112.354 55.6321 117.145 53.9331 120.165C53.2011 121.468 53.2601 123.455 52.3931 124.989C52.0221 125.659 50.9771 125.495 50.4681 126.199C49.6011 127.415 49.7571 129.337 48.9311 131.834C45.6811 141.595 39.5161 152.721 40.8431 167.252C41.1131 170.264 40.3961 174.854 40.8431 178.527C41.0211 180.033 42.2731 181.474 42.3831 182.955C42.7581 187.877 43.5091 194.798 44.6881 200.264C45.0681 202.007 46.4111 203.526 47.0031 205.494C47.5551 207.334 47.4561 209.645 48.1531 211.534C51.9171 221.618 59.0211 232.3 65.4881 241.317C66.2341 242.364 67.4591 243.082 67.7931 244.138C68.6711 246.875 67.7201 245.666 70.1031 246.951C71.4621 247.694 72.7651 250.202 74.7231 252.191C76.2871 253.773 78.2091 254.561 78.9631 255.814C79.4051 256.554 79.2131 257.595 79.7301 258.232C80.4791 259.152 82.6301 259.239 82.4251 261.046C85.8531 258.088 86.6681 263.714 88.5851 265.071C88.8361 265.248 90.2571 264.877 90.8981 265.071C90.8141 265.054 97.7441 267.987 98.5981 269.495C99.0881 270.371 98.5981 271.789 99.7501 272.316C101.707 273.216 106.125 271.345 107.838 273.118C108.381 273.686 108.026 275.271 108.608 275.538C109.499 275.941 112.611 275.2 114.385 275.538C118.835 276.385 132.426 279.355 133.629 283.582C134.448 286.45 132.089 289.473 134.784 291.232C136.101 291.533 135.277 289.597 136.712 290.028C138.01 292.589 142.673 294.494 141.329 288.412C137.614 292.336 136.246 285.87 135.56 281.978C138.613 280.388 145.475 283.109 149.032 283.183C151.142 283.225 155.367 280.613 154.422 285.198H155.967C156.368 281.066 162.086 282.853 162.13 286C162.738 281.992 173.014 279.394 174.056 284.39C175.245 281.657 175.017 282.887 178.299 281.573C179.004 281.286 179.098 280.441 179.445 280.368C180.872 280.064 182.563 280.847 183.678 280.368C184.841 279.873 185.075 280.067 187.151 279.968C188.806 279.876 189.908 277.888 192.15 277.143C194.037 276.529 196.321 277.134 197.546 276.743C198.717 276.371 199.538 274.919 201.01 274.325C203.312 273.408 206.879 273.244 210.248 271.919C215.225 269.949 220.05 265.727 222.955 265.473C226.005 265.206 225.391 265.924 227.193 263.061C228.539 260.917 231.74 261.046 234.507 259.034C237.668 256.74 238.602 254.08 239.897 253.391C240.918 252.861 241.987 253.582 242.59 252.991C243.273 252.335 242.843 251.04 243.365 250.176C244.17 248.831 246.162 248.766 247.212 247.759C247.91 247.092 247.554 245.829 247.98 245.351C249.14 244.022 253.251 243.434 254.524 242.122C255.429 241.205 255.647 239.91 256.067 238.5C262.176 239.803 261.966 228.77 266.467 226.023C267.189 225.587 268.449 226.499 269.154 226.023C270.306 225.263 270.005 222.66 270.697 221.196C270.928 220.704 272.638 219.887 273.007 218.776C273.669 216.791 274.28 213.994 275.702 213.144C277.514 212.057 276.577 213.653 277.621 211.534C278.063 210.658 279.775 210.602 279.939 210.321C281.167 208.275 281.223 203.827 282.637 201.477C283.28 200.394 284.85 199.986 284.941 197.852C286.026 197.517 285.938 198.421 286.869 198.258C288.038 189.681 293.428 182.324 294.959 173.295C295.509 170.011 295.032 166.594 295.342 163.236C295.799 158.153 295.449 152.104 296.109 148.341C296.588 145.594 295.676 141.266 294.959 137.88C293.532 131.203 293.901 125.653 291.492 119.762C290.45 117.235 288.581 113.778 286.869 110.908C284.524 106.979 282.004 102.304 279.939 99.6383C278.265 97.4763 275.171 95.4193 273.392 93.1933C272.441 92.0083 271.957 90.3113 271.079 89.1713C269.345 86.9113 267.197 85.4193 265.307 83.5393C262.485 80.7163 260.288 76.6543 257.222 74.2763C255.364 72.8413 252.376 70.5663 252.599 67.0313C251.765 66.1453 251.132 68.2363 251.062 68.2363C249.401 68.2083 247.667 60.7353 251.444 59.7903C255.084 58.8693 250.885 60.4263 252.99 60.9943C253.781 61.2083 255.351 60.3723 254.912 63.8093C257.666 62.7623 256.056 58.9993 258.38 56.1703C259.895 56.1843 260.668 56.9922 260.682 58.5772C263.385 57.1042 263.169 60.8453 266.085 59.3903C265.194 62.8573 268.586 62.2972 269.924 63.4062C271.303 64.5553 271.704 67.5773 274.17 67.0313V66.2293L275.222 66.4263L275.702 65.4193C277.301 67.0313 277.425 64.0483 278.784 64.2143C278.744 64.2083 283.402 67.8313 283.787 68.2363C284.691 69.1872 284.831 71.1693 285.714 71.4623C286.796 70.7633 286.075 70.4062 286.099 69.0383C287.523 69.8853 290.35 68.4133 291.879 70.6543C292.865 72.1153 291.796 75.1213 293.026 76.6913C293.406 77.1813 294.577 76.1903 295.342 76.6913C295.598 76.8633 296.462 79.3063 297.646 80.3193C299.687 82.0473 300.314 80.8543 301.119 82.3293C301.413 82.8893 300.664 84.7603 301.119 85.9453C301.652 87.3753 303.249 87.7073 303.427 88.3633C303.75 89.5703 301.364 91.8643 303.427 93.6043C305.93 95.7013 309.053 92.2613 311.118 95.6133C311.762 94.6033 310.68 92.3463 311.511 90.7843C313.628 90.3113 311.802 93.9673 313.436 94.0033C314.284 93.9533 313.595 92.2893 313.821 91.5833C314.645 94.5413 320.703 97.7023 315.738 99.6383C316.92 101.231 320.083 100.741 319.602 104.071C317.876 103.975 317.862 102.115 315.738 102.455C315.011 104.696 317.206 103.88 317.284 105.273L316.25 105.585L316.901 106.477C315.041 108.999 313.536 106.641 312.279 105.273C313.119 108.251 314.686 111.822 318.439 110.5L319.542 111.04L320.366 110.1C322.332 112.157 321.247 113.911 322.679 115.737C324.442 118.006 327.328 117.533 327.684 121.372C325.328 120.733 324.009 122.72 324.216 125.394C324.313 126.59 325.522 126.537 326.144 128.214C327.856 132.847 324.666 135.285 327.684 136.664C327.382 137.697 326.577 138.198 324.986 137.88C325.64 141.89 329.31 142.718 329.601 146.32C329.706 147.576 327.121 151.57 330.376 153.571C331.302 153.202 330.139 150.644 331.913 151.153C332.565 156.591 334.972 158.865 333.074 163.236C331.213 162.496 329.706 161.373 328.836 159.614C325.694 163.557 331.087 165.862 331.143 169.676C331.176 171.767 330.516 173.568 331.143 176.521C324.65 176.419 329.34 183.687 329.991 186.583C328.984 186.687 328.333 186.434 328.451 185.378C327.66 188.317 328.381 192.051 327.293 196.237C326.103 196.279 326.144 195.023 326.144 193.825C324.849 193.546 324.879 194.655 324.216 195.032C322.216 193.194 324.087 191.702 323.831 188.592C322.986 188.283 320.606 189.42 320.366 190.202C320.6 189.428 321.311 193.414 321.904 194.224C322.555 195.108 324.642 195.457 324.986 196.237C326.095 198.739 323.395 202.192 323.831 205.097C324.216 207.652 326.405 207.042 326.144 209.122C324.612 209.597 324.512 208.843 323.446 209.122C320.514 209.89 322.167 212.893 320.366 215.159C319.944 215.694 318.689 214.796 318.439 215.564C317.881 217.247 318.85 219.696 318.439 221.599C318.42 221.694 317.308 221.509 317.284 221.599C316.761 223.71 317.101 226.352 315.738 226.423C314.064 226.518 315.496 224.318 313.821 224.818L312.475 224.613L311.511 225.621C311.646 220.194 304.686 221.168 305.728 227.231C307.193 227.819 306.474 226.127 307.661 226.423C307.57 228.801 309.751 228.807 309.196 231.658L307.462 231.86L307.661 233.676C304.078 234.444 303.841 237.214 302.648 231.258C300.185 232.376 300.645 236.91 301.884 238.905C300.729 238.342 299.087 238.317 298.801 239.705L297.455 239.513L297.646 240.918C297.7 241.92 297.455 242.59 296.879 242.927C295.611 242.784 295.409 241.515 294.959 240.515C293.5 241.681 294.577 245.494 291.879 245.351L290.784 244.74L289.559 244.94Z" fill="#231F20"/>
<path fill-rule="evenodd" clip-rule="evenodd" d="M134.941 7.03095L136.672 7.85795C135.813 10.3719 138.5 9.17295 138.597 10.6809C138.36 11.5029 136.796 10.5439 135.905 11.4779C135.14 12.2909 136.365 14.2499 134.753 14.7029C130.752 15.8459 123.679 14.7319 123.197 13.9009C122.314 12.3729 125.012 11.4159 123.197 10.2759L123.798 8.93595L122.815 7.85795C127.23 7.78495 130.006 5.36495 135.132 5.04995L134.941 7.03095Z" fill="#231F20"/>
<path fill-rule="evenodd" clip-rule="evenodd" d="M115.5 12.4967L117.034 12.2917C117.132 17.3177 120.05 12.0187 122.042 13.4957C121.243 18.5257 116.111 19.3277 112.035 19.5387C110.568 19.6087 107.329 17.6337 107.8 21.1427C107.542 21.0897 106.104 21.1967 105.875 20.7437C105.019 19.0937 106.949 19.0547 107.8 17.1207C108.683 15.0917 107.587 15.2997 109.34 13.4957C110.298 12.5057 113.451 11.2837 114.73 11.0837L115.5 12.4967Z" fill="#231F20"/>
<path fill-rule="evenodd" clip-rule="evenodd" d="M100.097 17.1211C95.7493 19.8541 104.59 24.4161 97.7903 25.5681C97.6153 20.9851 94.1423 18.1481 100.097 17.1211Z" fill="#231F20"/>
<path fill-rule="evenodd" clip-rule="evenodd" d="M85.0827 23.5608C86.7817 21.3878 88.4207 24.1768 89.3177 22.3558C90.7387 22.6428 88.1167 24.6558 90.0817 24.3688L89.8937 25.9508L90.8547 27.1858C89.6867 31.2898 84.9207 30.3438 85.8557 26.3838L86.1107 24.7738L85.0827 23.5608Z" fill="#231F20"/>
<path fill-rule="evenodd" clip-rule="evenodd" d="M26.1707 75.4837C27.5487 73.8537 29.4067 69.4887 31.1807 69.4497C31.8327 69.4267 34.1937 71.3607 34.2607 71.8617C34.4817 73.4967 29.7347 77.7777 28.0987 77.8957L28.0037 75.9427L26.1707 75.4837Z" fill="#231F20"/>
<path fill-rule="evenodd" clip-rule="evenodd" d="M72.2918 36.8652C73.4518 34.8022 76.8118 35.5372 77.5768 33.0152L72.2918 36.8652Z" fill="#231F20"/>
<path fill-rule="evenodd" clip-rule="evenodd" d="M43.4362 57.3016C42.0902 58.8076 41.8882 61.8166 39.3012 61.8386L43.4362 57.3016Z" fill="#231F20"/>
<path fill-rule="evenodd" clip-rule="evenodd" d="M337.651 134.66C340.297 137.984 340.101 141.891 339.966 145.927L337.651 134.66Z" fill="#231F20"/>
<path fill-rule="evenodd" clip-rule="evenodd" d="M42.5396 266.276C40.9376 264.523 40.5796 260.712 41.5116 258.164L42.5396 266.276Z" fill="#231F20"/>
<path fill-rule="evenodd" clip-rule="evenodd" d="M25.5891 240.316C27.3581 242.199 28.7741 238.883 30.6021 238.706L25.5891 240.316Z" fill="#231F20"/>
<path fill-rule="evenodd" clip-rule="evenodd" d="M115.5 12.4967C117.236 9.59773 121.054 10.1357 123.797 8.93673L115.5 12.4967Z" fill="#231F20"/>
<path fill-rule="evenodd" clip-rule="evenodd" d="M134.941 7.03095C137.2 5.85695 141.055 5.27494 142.038 8.46394L134.941 7.03095Z" fill="#231F20"/>
<path fill-rule="evenodd" clip-rule="evenodd" d="M214.477 16.5189C215.465 13.0119 218.588 10.0789 220.804 14.5119L214.477 16.5189Z" fill="#231F20"/>
<path fill-rule="evenodd" clip-rule="evenodd" d="M282.785 62.5367C279.333 61.2087 280.696 64.9597 282.114 66.4267L282.785 62.5367Z" fill="#231F20"/>
<path fill-rule="evenodd" clip-rule="evenodd" d="M306.94 247.004C309.035 244.537 305.947 241.39 304.347 239.513L306.94 247.004Z" fill="#231F20"/>
<path fill-rule="evenodd" clip-rule="evenodd" d="M301.012 248.099C299.079 251.136 296.524 246.951 297.676 244.74L301.012 248.099Z" fill="#231F20"/>
<path fill-rule="evenodd" clip-rule="evenodd" d="M190.831 36.4459C187.894 36.1669 185.896 31.8839 182.682 33.5269L190.831 36.4459Z" fill="#231F20"/>
<path fill-rule="evenodd" clip-rule="evenodd" d="M326.435 111.04C325.792 108.895 326.093 105.808 323.142 105.585L326.435 111.04Z" fill="#231F20"/>
<path fill-rule="evenodd" clip-rule="evenodd" d="M314.354 231.861C318.792 236.393 320.219 227.929 319.367 224.614L314.354 231.861Z" fill="#231F20"/>
<path fill-rule="evenodd" clip-rule="evenodd" d="M169.928 298.277C170.294 295.254 169.231 293.152 167.879 290.63L169.928 298.277Z" fill="#231F20"/>
<path fill-rule="evenodd" clip-rule="evenodd" d="M89.8937 25.9508C93.0057 26.4458 94.5677 24.1514 94.1337 21.1434L89.8937 25.9508Z" fill="#231F20"/>
<path fill-rule="evenodd" clip-rule="evenodd" d="M80.4251 27.1437C82.6921 27.2137 83.8117 24.9738 86.1107 24.7738L80.4251 27.1437Z" fill="#231F20"/>
<path fill-rule="evenodd" clip-rule="evenodd" d="M22.3908 86.4438C24.3698 83.2998 24.6957 78.4727 28.0037 75.9427L22.3908 86.4438Z" fill="#231F20"/>
</svg>
